SplineFontDB: 3.0
FontName: DSEG14Modern-Italic
FullName: DSEG14 Modern-Italic
FamilyName: DSEG14 Modern
Weight: Book
Copyright: Created by Keshikan\nwith FontForge 2.0 (http://fontforge.sf.net)
Version: 0.3
ItalicAngle: -5
UnderlinePosition: -150
UnderlineWidth: 50
Ascent: 1000
Descent: 0
InvalidEm: 0
sfntRevision: 0x00004ccc
LayerCount: 2
Layer: 0 1 "Back" 1
Layer: 1 1 "Fore" 0
XUID: [1021 100 961895072 1026]
StyleMap: 0x0001
FSType: 8
OS2Version: 4
OS2_WeightWidthSlopeOnly: 0
OS2_UseTypoMetrics: 1
CreationTime: 1409488158
ModificationTime: 1519011666
PfmFamily: 17
TTFWeight: 400
TTFWidth: 5
LineGap: 90
VLineGap: 0
Panose: 2 0 5 3 0 0 0 0 0 0
OS2TypoAscent: 1000
OS2TypoAOffset: 0
OS2TypoDescent: 0
OS2TypoDOffset: 0
OS2TypoLinegap: 90
OS2WinAscent: 1000
OS2WinAOffset: 0
OS2WinDescent: 0
OS2WinDOffset: 0
HheadAscent: 1000
HheadAOffset: 0
HheadDescent: 0
HheadDOffset: 0
OS2SubXSize: 650
OS2SubYSize: 700
OS2SubXOff: 12
OS2SubYOff: 140
OS2SupXSize: 650
OS2SupYSize: 700
OS2SupXOff: -41
OS2SupYOff: 480
OS2StrikeYSize: 49
OS2StrikeYPos: 258
OS2CapHeight: 1000
OS2XHeight: 1000
OS2Vendor: 'PfEd'
OS2CodePages: 00000001.00000000
OS2UnicodeRanges: 00000003.00000000.00000000.00000000
MarkAttachClasses: 1
DEI: 91125
ShortTable: cvt  2
  33
  633
EndShort
ShortTable: maxp 16
  1
  0
  95
  105
  14
  0
  0
  2
  0
  1
  1
  0
  64
  46
  0
  0
EndShort

StartChar: .notdef
Encoding: 65536 -1 0
Width: 364
Flags: W
LayerCount: 2
Fore
SplineSet
33 0 m 1,0,-1
 33 666 l 1,1,-1
 298 666 l 1,2,-1
 298 0 l 1,3,-1
 33 0 l 1,0,-1
66 33 m 1,4,-1
 265 33 l 1,5,-1
 265 633 l 1,6,-1
 66 633 l 1,7,-1
 66 33 l 1,4,-1
EndSplineSet
Validated: 1
EndChar

StartChar: quotedbl
Encoding: 34 34 5
Width: 816
Flags: W
LayerCount: 2
Fore
SplineSet
381 713 m 1,0,-1
 396 887 l 1,1,-1
 488 887 l 1,2,-1
 473 713 l 1,3,-1
 412 540 l 1,4,-1
 381 713 l 1,0,-1
139 959 m 1,5,6
 139 959 139 959 139 961 c 2,7,-1
 228 907 l 1,8,-1
 227 905 l 1,9,-1
 227 895 l 1,10,-1
 226 887 l 1,11,-1
 217 782 l 1,12,-1
 199 578 l 1,13,-1
 196 546 l 1,14,-1
 150 477 l 1,15,-1
 100 507 l 1,16,-1
 139 959 l 1,5,6
EndSplineSet
Validated: 1
EndChar

StartChar: dollar
Encoding: 36 36 6
Width: 816
Flags: W
LayerCount: 2
Fore
SplineSet
387 500 m 1,0,-1
 303 454 l 1,1,-1
 208 454 l 1,2,-1
 188 454 l 1,3,-1
 166 467 l 1,4,-1
 219 546 l 1,5,-1
 311 546 l 1,6,-1
 387 500 l 1,0,-1
381 713 m 1,7,-1
 396 887 l 1,8,-1
 488 887 l 1,9,-1
 473 713 l 1,10,-1
 412 540 l 1,11,-1
 381 713 l 1,7,-1
628 546 m 1,12,-1
 650 533 l 1,13,-1
 597 454 l 1,14,-1
 505 454 l 1,15,-1
 429 500 l 1,16,-1
 513 546 l 1,17,-1
 628 546 l 1,12,-1
666 523 m 1,18,-1
 716 493 l 1,19,-1
 677 41 l 1,20,-1
 677 39 l 1,21,-1
 588 93 l 1,22,-1
 589 95 l 1,23,-1
 589 103 l 1,24,-1
 590 113 l 1,25,-1
 599 218 l 1,26,-1
 620 454 l 1,27,-1
 666 523 l 1,18,-1
435 287 m 1,28,-1
 420 113 l 1,29,-1
 328 113 l 1,30,-1
 343 287 l 1,31,-1
 404 460 l 1,32,-1
 435 287 l 1,28,-1
269 907 m 1,33,-1
 147 981 l 1,34,35
 161 1000 161 1000 184 1000 c 2,36,-1
 720 1000 l 1,37,-1
 722 1000 l 1,38,-1
 660 907 l 1,39,-1
 657 907 l 1,40,-1
 626 907 l 1,41,-1
 490 907 l 1,42,-1
 398 907 l 1,43,-1
 269 907 l 1,33,-1
547 93 m 1,44,-1
 669 19 l 1,45,46
 655 0 655 0 632 0 c 2,47,-1
 96 0 l 1,48,-1
 94 0 l 1,49,-1
 156 93 l 1,50,-1
 159 93 l 1,51,-1
 190 93 l 1,52,-1
 326 93 l 1,53,-1
 418 93 l 1,54,-1
 547 93 l 1,44,-1
139 959 m 1,55,-1
 139 961 l 1,56,-1
 228 907 l 1,57,-1
 227 905 l 1,58,-1
 227 895 l 1,59,-1
 226 887 l 1,60,-1
 217 782 l 1,61,-1
 199 578 l 1,62,-1
 196 546 l 1,63,-1
 150 477 l 1,64,-1
 100 507 l 1,65,-1
 139 959 l 1,55,-1
EndSplineSet
Validated: 1
EndChar

StartChar: percent
Encoding: 37 37 7
Width: 816
Flags: W
LayerCount: 2
Fore
SplineSet
387 500 m 1,0,-1
 303 454 l 1,1,-1
 208 454 l 1,2,-1
 188 454 l 1,3,-1
 166 467 l 1,4,-1
 219 546 l 1,5,-1
 311 546 l 1,6,-1
 387 500 l 1,0,-1
628 546 m 1,7,-1
 650 533 l 1,8,-1
 597 454 l 1,9,-1
 505 454 l 1,10,-1
 429 500 l 1,11,-1
 513 546 l 1,12,-1
 628 546 l 1,7,-1
234 746 m 1,13,-1
 246 887 l 1,14,-1
 272 887 l 1,15,-1
 360 707 l 1,16,-1
 394 521 l 1,17,-1
 323 564 l 1,18,-1
 234 746 l 1,13,-1
666 523 m 1,19,-1
 716 493 l 1,20,-1
 677 41 l 1,21,-1
 677 39 l 1,22,-1
 588 93 l 1,23,-1
 589 95 l 1,24,-1
 589 103 l 1,25,-1
 590 113 l 1,26,-1
 599 218 l 1,27,-1
 620 454 l 1,28,-1
 666 523 l 1,19,-1
492 707 m 1,29,-1
 612 887 l 1,30,-1
 638 887 l 1,31,-1
 626 746 l 1,32,-1
 505 564 l 1,33,-1
 426 521 l 1,34,-1
 492 707 l 1,29,-1
324 293 m 1,35,-1
 204 113 l 1,36,-1
 178 113 l 1,37,-1
 190 254 l 1,38,-1
 311 436 l 1,39,-1
 390 479 l 1,40,-1
 324 293 l 1,35,-1
582 254 m 1,41,-1
 570 113 l 1,42,-1
 544 113 l 1,43,-1
 456 293 l 1,44,-1
 422 479 l 1,45,-1
 493 436 l 1,46,-1
 582 254 l 1,41,-1
139 959 m 1,47,-1
 139 961 l 1,48,-1
 228 907 l 1,49,-1
 227 905 l 1,50,-1
 227 895 l 1,51,-1
 226 887 l 1,52,-1
 217 782 l 1,53,-1
 199 578 l 1,54,-1
 196 546 l 1,55,-1
 150 477 l 1,56,-1
 100 507 l 1,57,-1
 139 959 l 1,47,-1
EndSplineSet
Validated: 1
EndChar

StartChar: ampersand
Encoding: 38 38 8
Width: 816
Flags: W
LayerCount: 2
Fore
SplineSet
234 746 m 1,0,-1
 246 887 l 1,1,-1
 272 887 l 1,2,-1
 360 707 l 1,3,-1
 394 521 l 1,4,-1
 323 564 l 1,5,-1
 234 746 l 1,0,-1
666 523 m 1,6,-1
 716 493 l 1,7,-1
 677 41 l 1,8,9
 677 41 677 41 677 39 c 2,10,-1
 588 93 l 1,11,-1
 589 95 l 1,12,-1
 589 103 l 1,13,-1
 590 113 l 1,14,-1
 599 218 l 1,15,-1
 620 454 l 1,16,-1
 666 523 l 1,6,-1
492 707 m 1,17,-1
 612 887 l 1,18,-1
 638 887 l 1,19,-1
 626 746 l 1,20,-1
 505 564 l 1,21,-1
 426 521 l 1,22,-1
 492 707 l 1,17,-1
269 907 m 1,23,-1
 147 981 l 1,24,25
 161 1000 161 1000 184 1000 c 2,26,-1
 720 1000 l 1,27,-1
 722 1000 l 1,28,-1
 660 907 l 1,29,-1
 657 907 l 1,30,-1
 626 907 l 1,31,-1
 490 907 l 1,32,-1
 398 907 l 1,33,-1
 269 907 l 1,23,-1
547 93 m 1,34,-1
 669 19 l 1,35,36
 655 0 655 0 632 0 c 2,37,-1
 96 0 l 1,38,-1
 94 0 l 1,39,-1
 156 93 l 1,40,-1
 159 93 l 1,41,-1
 190 93 l 1,42,-1
 326 93 l 1,43,-1
 418 93 l 1,44,-1
 547 93 l 1,34,-1
324 293 m 1,45,-1
 204 113 l 1,46,-1
 178 113 l 1,47,-1
 190 254 l 1,48,-1
 311 436 l 1,49,-1
 390 479 l 1,50,-1
 324 293 l 1,45,-1
582 254 m 1,51,-1
 570 113 l 1,52,-1
 544 113 l 1,53,-1
 456 293 l 1,54,-1
 422 479 l 1,55,-1
 493 436 l 1,56,-1
 582 254 l 1,51,-1
EndSplineSet
Validated: 1
EndChar

StartChar: quotesingle
Encoding: 39 39 9
Width: 816
Flags: W
LayerCount: 2
Fore
SplineSet
381 713 m 1,0,-1
 396 887 l 1,1,-1
 488 887 l 1,2,-1
 473 713 l 1,3,-1
 412 540 l 1,4,-1
 381 713 l 1,0,-1
EndSplineSet
Validated: 1
EndChar

StartChar: parenleft
Encoding: 40 40 10
Width: 816
Flags: W
LayerCount: 2
Fore
SplineSet
492 707 m 1,0,-1
 612 887 l 1,1,-1
 638 887 l 1,2,-1
 626 746 l 1,3,-1
 505 564 l 1,4,-1
 426 521 l 1,5,-1
 492 707 l 1,0,-1
582 254 m 1,6,-1
 570 113 l 1,7,-1
 544 113 l 1,8,-1
 456 293 l 1,9,-1
 422 479 l 1,10,-1
 493 436 l 1,11,-1
 582 254 l 1,6,-1
EndSplineSet
Validated: 1
EndChar

StartChar: parenright
Encoding: 41 41 11
Width: 816
Flags: W
LayerCount: 2
Fore
SplineSet
234 746 m 1,0,-1
 246 887 l 1,1,-1
 272 887 l 1,2,-1
 360 707 l 1,3,-1
 394 521 l 1,4,-1
 323 564 l 1,5,-1
 234 746 l 1,0,-1
324 293 m 1,6,-1
 204 113 l 1,7,-1
 178 113 l 1,8,-1
 190 254 l 1,9,-1
 311 436 l 1,10,-1
 390 479 l 1,11,-1
 324 293 l 1,6,-1
EndSplineSet
Validated: 1
EndChar

StartChar: asterisk
Encoding: 42 42 12
Width: 816
Flags: W
LayerCount: 2
Fore
SplineSet
387 500 m 1,0,-1
 303 454 l 1,1,-1
 208 454 l 1,2,-1
 188 454 l 1,3,-1
 166 467 l 1,4,-1
 219 546 l 1,5,-1
 311 546 l 1,6,-1
 387 500 l 1,0,-1
381 713 m 1,7,-1
 396 887 l 1,8,-1
 488 887 l 1,9,-1
 473 713 l 1,10,-1
 412 540 l 1,11,-1
 381 713 l 1,7,-1
628 546 m 1,12,-1
 650 533 l 1,13,-1
 597 454 l 1,14,-1
 505 454 l 1,15,-1
 429 500 l 1,16,-1
 513 546 l 1,17,-1
 628 546 l 1,12,-1
234 746 m 1,18,-1
 246 887 l 1,19,-1
 272 887 l 1,20,-1
 360 707 l 1,21,-1
 394 521 l 1,22,-1
 323 564 l 1,23,-1
 234 746 l 1,18,-1
492 707 m 1,24,-1
 612 887 l 1,25,-1
 638 887 l 1,26,-1
 626 746 l 1,27,-1
 505 564 l 1,28,-1
 426 521 l 1,29,-1
 492 707 l 1,24,-1
435 287 m 1,30,-1
 420 113 l 1,31,-1
 328 113 l 1,32,-1
 343 287 l 1,33,-1
 404 460 l 1,34,-1
 435 287 l 1,30,-1
324 293 m 1,35,-1
 204 113 l 1,36,-1
 178 113 l 1,37,-1
 190 254 l 1,38,-1
 311 436 l 1,39,-1
 390 479 l 1,40,-1
 324 293 l 1,35,-1
582 254 m 1,41,-1
 570 113 l 1,42,-1
 544 113 l 1,43,-1
 456 293 l 1,44,-1
 422 479 l 1,45,-1
 493 436 l 1,46,-1
 582 254 l 1,41,-1
EndSplineSet
Validated: 1
EndChar

StartChar: plus
Encoding: 43 43 13
Width: 816
Flags: W
LayerCount: 2
Fore
SplineSet
387 500 m 1,0,-1
 303 454 l 1,1,-1
 208 454 l 1,2,-1
 188 454 l 1,3,-1
 166 467 l 1,4,-1
 219 546 l 1,5,-1
 311 546 l 1,6,-1
 387 500 l 1,0,-1
381 713 m 1,7,-1
 396 887 l 1,8,-1
 488 887 l 1,9,-1
 473 713 l 1,10,-1
 412 540 l 1,11,-1
 381 713 l 1,7,-1
628 546 m 1,12,-1
 650 533 l 1,13,-1
 597 454 l 1,14,-1
 505 454 l 1,15,-1
 429 500 l 1,16,-1
 513 546 l 1,17,-1
 628 546 l 1,12,-1
435 287 m 1,18,-1
 420 113 l 1,19,-1
 328 113 l 1,20,-1
 343 287 l 1,21,-1
 404 460 l 1,22,-1
 435 287 l 1,18,-1
EndSplineSet
Validated: 1
EndChar

StartChar: comma
Encoding: 44 44 14
Width: 816
Flags: W
LayerCount: 2
Fore
SplineSet
324 293 m 1,0,-1
 204 113 l 1,1,-1
 178 113 l 1,2,-1
 190 254 l 1,3,-1
 311 436 l 1,4,-1
 390 479 l 1,5,-1
 324 293 l 1,0,-1
EndSplineSet
Validated: 1
EndChar

StartChar: hyphen
Encoding: 45 45 15
Width: 816
Flags: W
LayerCount: 2
Fore
SplineSet
387 500 m 1,0,-1
 303 454 l 1,1,-1
 208 454 l 1,2,-1
 188 454 l 1,3,-1
 166 467 l 1,4,-1
 219 546 l 1,5,-1
 311 546 l 1,6,-1
 387 500 l 1,0,-1
628 546 m 1,7,-1
 650 533 l 1,8,-1
 597 454 l 1,9,-1
 505 454 l 1,10,-1
 429 500 l 1,11,-1
 513 546 l 1,12,-1
 628 546 l 1,7,-1
EndSplineSet
Validated: 1
EndChar

StartChar: period
Encoding: 46 46 16
Width: 0
Flags: W
LayerCount: 2
Fore
SplineSet
18 62 m 128,-1,1
 18 50 18 50 13 38 c 128,-1,2
 8 26 8 26 0 18 c 128,-1,3
 -8 10 -8 10 -20 5 c 128,-1,4
 -32 0 -32 0 -44 0 c 128,-1,5
 -56 0 -56 0 -68 5 c 128,-1,6
 -80 10 -80 10 -88 18 c 128,-1,7
 -96 26 -96 26 -101 38 c 128,-1,8
 -106 50 -106 50 -106 62 c 128,-1,9
 -106 74 -106 74 -101 86 c 128,-1,10
 -96 98 -96 98 -88 106 c 128,-1,11
 -80 114 -80 114 -68 119 c 128,-1,12
 -56 124 -56 124 -44 124 c 128,-1,13
 -32 124 -32 124 -20 119 c 128,-1,14
 -8 114 -8 114 0 106 c 128,-1,15
 8 98 8 98 13 86 c 128,-1,0
 18 74 18 74 18 62 c 128,-1,1
EndSplineSet
Validated: 1
EndChar

StartChar: slash
Encoding: 47 47 17
Width: 816
Flags: W
LayerCount: 2
Fore
SplineSet
492 707 m 1,0,-1
 612 887 l 1,1,-1
 638 887 l 1,2,-1
 626 746 l 1,3,-1
 505 564 l 1,4,-1
 426 521 l 1,5,-1
 492 707 l 1,0,-1
324 293 m 1,6,-1
 204 113 l 1,7,-1
 178 113 l 1,8,-1
 190 254 l 1,9,-1
 311 436 l 1,10,-1
 390 479 l 1,11,-1
 324 293 l 1,6,-1
EndSplineSet
Validated: 1
EndChar

StartChar: zero
Encoding: 48 48 18
Width: 816
Flags: W
LayerCount: 2
Fore
SplineSet
666 523 m 1,0,-1
 716 493 l 1,1,-1
 677 41 l 1,2,3
 677 41 677 41 677 39 c 2,4,-1
 588 93 l 1,5,-1
 589 95 l 1,6,-1
 589 103 l 1,7,-1
 590 113 l 1,8,-1
 599 218 l 1,9,-1
 620 454 l 1,10,-1
 666 523 l 1,0,-1
167 218 m 1,11,-1
 160 134 l 1,12,-1
 75 6 l 1,13,14
 57 18 57 18 59 41 c 2,15,-1
 98 483 l 1,16,-1
 186 430 l 1,17,-1
 167 218 l 1,11,-1
492 707 m 1,18,-1
 612 887 l 1,19,-1
 638 887 l 1,20,-1
 626 746 l 1,21,-1
 505 564 l 1,22,-1
 426 521 l 1,23,-1
 492 707 l 1,18,-1
741 994 m 1,24,25
 759 982 759 982 757 959 c 2,26,-1
 718 517 l 1,27,-1
 630 570 l 1,28,-1
 633 607 l 1,29,-1
 649 782 l 1,30,-1
 656 866 l 1,31,-1
 741 994 l 1,24,25
269 907 m 1,32,-1
 147 981 l 1,33,34
 161 1000 161 1000 184 1000 c 2,35,-1
 720 1000 l 1,36,-1
 722 1000 l 1,37,-1
 660 907 l 1,38,-1
 657 907 l 1,39,-1
 626 907 l 1,40,-1
 490 907 l 1,41,-1
 398 907 l 1,42,-1
 269 907 l 1,32,-1
547 93 m 1,43,-1
 669 19 l 1,44,45
 655 0 655 0 632 0 c 2,46,-1
 96 0 l 1,47,-1
 94 0 l 1,48,-1
 156 93 l 1,49,-1
 159 93 l 1,50,-1
 190 93 l 1,51,-1
 326 93 l 1,52,-1
 418 93 l 1,53,-1
 547 93 l 1,43,-1
324 293 m 1,54,-1
 204 113 l 1,55,-1
 178 113 l 1,56,-1
 190 254 l 1,57,-1
 311 436 l 1,58,-1
 390 479 l 1,59,-1
 324 293 l 1,54,-1
139 959 m 1,60,-1
 139 961 l 1,61,-1
 228 907 l 1,62,-1
 227 905 l 1,63,-1
 227 895 l 1,64,-1
 226 887 l 1,65,-1
 217 782 l 1,66,-1
 199 578 l 1,67,-1
 196 546 l 1,68,-1
 150 477 l 1,69,-1
 100 507 l 1,70,-1
 139 959 l 1,60,-1
EndSplineSet
Validated: 33
EndChar

StartChar: one
Encoding: 49 49 19
Width: 816
Flags: W
LayerCount: 2
Fore
SplineSet
666 523 m 1,0,-1
 716 493 l 1,1,-1
 677 41 l 1,2,3
 677 41 677 41 677 39 c 2,4,-1
 588 93 l 1,5,-1
 589 95 l 1,6,-1
 589 103 l 1,7,-1
 590 113 l 1,8,-1
 599 218 l 1,9,-1
 620 454 l 1,10,-1
 666 523 l 1,0,-1
741 994 m 1,11,12
 759 982 759 982 757 959 c 2,13,-1
 718 517 l 1,14,-1
 630 570 l 1,15,-1
 633 607 l 1,16,-1
 649 782 l 1,17,-1
 656 866 l 1,18,-1
 741 994 l 1,11,12
EndSplineSet
Validated: 33
EndChar

StartChar: two
Encoding: 50 50 20
Width: 816
Flags: W
LayerCount: 2
Fore
SplineSet
387 500 m 1,0,-1
 303 454 l 1,1,-1
 208 454 l 1,2,-1
 188 454 l 1,3,-1
 166 467 l 1,4,-1
 219 546 l 1,5,-1
 311 546 l 1,6,-1
 387 500 l 1,0,-1
628 546 m 1,7,-1
 650 533 l 1,8,-1
 597 454 l 1,9,-1
 505 454 l 1,10,-1
 429 500 l 1,11,-1
 513 546 l 1,12,-1
 628 546 l 1,7,-1
167 218 m 1,13,-1
 160 134 l 1,14,-1
 75 6 l 1,15,16
 57 18 57 18 59 41 c 2,17,-1
 98 483 l 1,18,-1
 186 430 l 1,19,-1
 167 218 l 1,13,-1
741 994 m 1,20,21
 759 982 759 982 757 959 c 2,22,-1
 718 517 l 1,23,-1
 630 570 l 1,24,-1
 633 607 l 1,25,-1
 649 782 l 1,26,-1
 656 866 l 1,27,-1
 741 994 l 1,20,21
269 907 m 1,28,-1
 147 981 l 1,29,30
 161 1000 161 1000 184 1000 c 2,31,-1
 720 1000 l 1,32,-1
 722 1000 l 1,33,-1
 660 907 l 1,34,-1
 657 907 l 1,35,-1
 626 907 l 1,36,-1
 490 907 l 1,37,-1
 398 907 l 1,38,-1
 269 907 l 1,28,-1
547 93 m 1,39,-1
 669 19 l 1,40,41
 655 0 655 0 632 0 c 2,42,-1
 96 0 l 1,43,-1
 94 0 l 1,44,-1
 156 93 l 1,45,-1
 159 93 l 1,46,-1
 190 93 l 1,47,-1
 326 93 l 1,48,-1
 418 93 l 1,49,-1
 547 93 l 1,39,-1
EndSplineSet
Validated: 33
EndChar

StartChar: three
Encoding: 51 51 21
Width: 816
Flags: W
LayerCount: 2
Fore
SplineSet
387 500 m 1,0,-1
 303 454 l 1,1,-1
 208 454 l 1,2,-1
 188 454 l 1,3,-1
 166 467 l 1,4,-1
 219 546 l 1,5,-1
 311 546 l 1,6,-1
 387 500 l 1,0,-1
628 546 m 1,7,-1
 650 533 l 1,8,-1
 597 454 l 1,9,-1
 505 454 l 1,10,-1
 429 500 l 1,11,-1
 513 546 l 1,12,-1
 628 546 l 1,7,-1
666 523 m 1,13,-1
 716 493 l 1,14,-1
 677 41 l 1,15,-1
 677 39 l 1,16,-1
 588 93 l 1,17,-1
 589 95 l 1,18,-1
 589 103 l 1,19,-1
 590 113 l 1,20,-1
 599 218 l 1,21,-1
 620 454 l 1,22,-1
 666 523 l 1,13,-1
741 994 m 1,23,24
 759 982 759 982 757 959 c 2,25,-1
 718 517 l 1,26,-1
 630 570 l 1,27,-1
 633 607 l 1,28,-1
 649 782 l 1,29,-1
 656 866 l 1,30,-1
 741 994 l 1,23,24
269 907 m 1,31,-1
 147 981 l 1,32,33
 161 1000 161 1000 184 1000 c 2,34,-1
 720 1000 l 1,35,-1
 722 1000 l 1,36,-1
 660 907 l 1,37,-1
 657 907 l 1,38,-1
 626 907 l 1,39,-1
 490 907 l 1,40,-1
 398 907 l 1,41,-1
 269 907 l 1,31,-1
547 93 m 1,42,-1
 669 19 l 1,43,44
 655 0 655 0 632 0 c 2,45,-1
 96 0 l 1,46,-1
 94 0 l 1,47,-1
 156 93 l 1,48,-1
 159 93 l 1,49,-1
 190 93 l 1,50,-1
 326 93 l 1,51,-1
 418 93 l 1,52,-1
 547 93 l 1,42,-1
EndSplineSet
Validated: 33
EndChar

StartChar: four
Encoding: 52 52 22
Width: 816
Flags: W
LayerCount: 2
Fore
SplineSet
387 500 m 1,0,-1
 303 454 l 1,1,-1
 208 454 l 1,2,-1
 188 454 l 1,3,-1
 166 467 l 1,4,-1
 219 546 l 1,5,-1
 311 546 l 1,6,-1
 387 500 l 1,0,-1
628 546 m 1,7,-1
 650 533 l 1,8,-1
 597 454 l 1,9,-1
 505 454 l 1,10,-1
 429 500 l 1,11,-1
 513 546 l 1,12,-1
 628 546 l 1,7,-1
666 523 m 1,13,-1
 716 493 l 1,14,-1
 677 41 l 1,15,-1
 677 39 l 1,16,-1
 588 93 l 1,17,-1
 589 95 l 1,18,-1
 589 103 l 1,19,-1
 590 113 l 1,20,-1
 599 218 l 1,21,-1
 620 454 l 1,22,-1
 666 523 l 1,13,-1
741 994 m 1,23,24
 759 982 759 982 757 959 c 2,25,-1
 718 517 l 1,26,-1
 630 570 l 1,27,-1
 633 607 l 1,28,-1
 649 782 l 1,29,-1
 656 866 l 1,30,-1
 741 994 l 1,23,24
139 959 m 1,31,-1
 139 961 l 1,32,-1
 228 907 l 1,33,-1
 227 905 l 1,34,-1
 227 895 l 1,35,-1
 226 887 l 1,36,-1
 217 782 l 1,37,-1
 199 578 l 1,38,-1
 196 546 l 1,39,-1
 150 477 l 1,40,-1
 100 507 l 1,41,-1
 139 959 l 1,31,-1
EndSplineSet
Validated: 33
EndChar

StartChar: five
Encoding: 53 53 23
Width: 816
Flags: W
LayerCount: 2
Fore
SplineSet
387 500 m 1,0,-1
 303 454 l 1,1,-1
 208 454 l 1,2,-1
 188 454 l 1,3,-1
 166 467 l 1,4,-1
 219 546 l 1,5,-1
 311 546 l 1,6,-1
 387 500 l 1,0,-1
628 546 m 1,7,-1
 650 533 l 1,8,-1
 597 454 l 1,9,-1
 505 454 l 1,10,-1
 429 500 l 1,11,-1
 513 546 l 1,12,-1
 628 546 l 1,7,-1
666 523 m 1,13,-1
 716 493 l 1,14,-1
 677 41 l 1,15,-1
 677 39 l 1,16,-1
 588 93 l 1,17,-1
 589 95 l 1,18,-1
 589 103 l 1,19,-1
 590 113 l 1,20,-1
 599 218 l 1,21,-1
 620 454 l 1,22,-1
 666 523 l 1,13,-1
269 907 m 1,23,-1
 147 981 l 1,24,25
 161 1000 161 1000 184 1000 c 2,26,-1
 720 1000 l 1,27,-1
 722 1000 l 1,28,-1
 660 907 l 1,29,-1
 657 907 l 1,30,-1
 626 907 l 1,31,-1
 490 907 l 1,32,-1
 398 907 l 1,33,-1
 269 907 l 1,23,-1
547 93 m 1,34,-1
 669 19 l 1,35,36
 655 0 655 0 632 0 c 2,37,-1
 96 0 l 1,38,-1
 94 0 l 1,39,-1
 156 93 l 1,40,-1
 159 93 l 1,41,-1
 190 93 l 1,42,-1
 326 93 l 1,43,-1
 418 93 l 1,44,-1
 547 93 l 1,34,-1
139 959 m 1,45,-1
 139 961 l 1,46,-1
 228 907 l 1,47,-1
 227 905 l 1,48,-1
 227 895 l 1,49,-1
 226 887 l 1,50,-1
 217 782 l 1,51,-1
 199 578 l 1,52,-1
 196 546 l 1,53,-1
 150 477 l 1,54,-1
 100 507 l 1,55,-1
 139 959 l 1,45,-1
EndSplineSet
Validated: 1
EndChar

StartChar: six
Encoding: 54 54 24
Width: 816
Flags: W
LayerCount: 2
Fore
SplineSet
387 500 m 1,0,-1
 303 454 l 1,1,-1
 208 454 l 1,2,-1
 188 454 l 1,3,-1
 166 467 l 1,4,-1
 219 546 l 1,5,-1
 311 546 l 1,6,-1
 387 500 l 1,0,-1
628 546 m 1,7,-1
 650 533 l 1,8,-1
 597 454 l 1,9,-1
 505 454 l 1,10,-1
 429 500 l 1,11,-1
 513 546 l 1,12,-1
 628 546 l 1,7,-1
666 523 m 1,13,-1
 716 493 l 1,14,-1
 677 41 l 1,15,-1
 677 39 l 1,16,-1
 588 93 l 1,17,-1
 589 95 l 1,18,-1
 589 103 l 1,19,-1
 590 113 l 1,20,-1
 599 218 l 1,21,-1
 620 454 l 1,22,-1
 666 523 l 1,13,-1
167 218 m 1,23,-1
 160 134 l 1,24,-1
 75 6 l 1,25,26
 57 18 57 18 59 41 c 2,27,-1
 98 483 l 1,28,-1
 186 430 l 1,29,-1
 167 218 l 1,23,-1
269 907 m 1,30,-1
 147 981 l 1,31,32
 161 1000 161 1000 184 1000 c 2,33,-1
 720 1000 l 1,34,-1
 722 1000 l 1,35,-1
 660 907 l 1,36,-1
 657 907 l 1,37,-1
 626 907 l 1,38,-1
 490 907 l 1,39,-1
 398 907 l 1,40,-1
 269 907 l 1,30,-1
547 93 m 1,41,-1
 669 19 l 1,42,43
 655 0 655 0 632 0 c 2,44,-1
 96 0 l 1,45,-1
 94 0 l 1,46,-1
 156 93 l 1,47,-1
 159 93 l 1,48,-1
 190 93 l 1,49,-1
 326 93 l 1,50,-1
 418 93 l 1,51,-1
 547 93 l 1,41,-1
139 959 m 1,52,-1
 139 961 l 1,53,-1
 228 907 l 1,54,-1
 227 905 l 1,55,-1
 227 895 l 1,56,-1
 226 887 l 1,57,-1
 217 782 l 1,58,-1
 199 578 l 1,59,-1
 196 546 l 1,60,-1
 150 477 l 1,61,-1
 100 507 l 1,62,-1
 139 959 l 1,52,-1
EndSplineSet
Validated: 33
EndChar

StartChar: seven
Encoding: 55 55 25
Width: 816
Flags: W
LayerCount: 2
Fore
SplineSet
666 523 m 1,0,-1
 716 493 l 1,1,-1
 677 41 l 1,2,3
 677 41 677 41 677 39 c 2,4,-1
 588 93 l 1,5,-1
 589 95 l 1,6,-1
 589 103 l 1,7,-1
 590 113 l 1,8,-1
 599 218 l 1,9,-1
 620 454 l 1,10,-1
 666 523 l 1,0,-1
741 994 m 1,11,12
 759 982 759 982 757 959 c 2,13,-1
 718 517 l 1,14,-1
 630 570 l 1,15,-1
 633 607 l 1,16,-1
 649 782 l 1,17,-1
 656 866 l 1,18,-1
 741 994 l 1,11,12
269 907 m 1,19,-1
 147 981 l 1,20,21
 161 1000 161 1000 184 1000 c 2,22,-1
 720 1000 l 1,23,-1
 722 1000 l 1,24,-1
 660 907 l 1,25,-1
 657 907 l 1,26,-1
 626 907 l 1,27,-1
 490 907 l 1,28,-1
 398 907 l 1,29,-1
 269 907 l 1,19,-1
139 959 m 1,30,-1
 139 961 l 1,31,-1
 228 907 l 1,32,-1
 227 905 l 1,33,-1
 227 895 l 1,34,-1
 226 887 l 1,35,-1
 217 782 l 1,36,-1
 199 578 l 1,37,-1
 196 546 l 1,38,-1
 150 477 l 1,39,-1
 100 507 l 1,40,-1
 139 959 l 1,30,-1
EndSplineSet
Validated: 33
EndChar

StartChar: eight
Encoding: 56 56 26
Width: 816
Flags: W
LayerCount: 2
Fore
SplineSet
387 500 m 1,0,-1
 303 454 l 1,1,-1
 208 454 l 1,2,-1
 188 454 l 1,3,-1
 166 467 l 1,4,-1
 219 546 l 1,5,-1
 311 546 l 1,6,-1
 387 500 l 1,0,-1
628 546 m 1,7,-1
 650 533 l 1,8,-1
 597 454 l 1,9,-1
 505 454 l 1,10,-1
 429 500 l 1,11,-1
 513 546 l 1,12,-1
 628 546 l 1,7,-1
666 523 m 1,13,-1
 716 493 l 1,14,-1
 677 41 l 1,15,-1
 677 39 l 1,16,-1
 588 93 l 1,17,-1
 589 95 l 1,18,-1
 589 103 l 1,19,-1
 590 113 l 1,20,-1
 599 218 l 1,21,-1
 620 454 l 1,22,-1
 666 523 l 1,13,-1
167 218 m 1,23,-1
 160 134 l 1,24,-1
 75 6 l 1,25,26
 57 18 57 18 59 41 c 2,27,-1
 98 483 l 1,28,-1
 186 430 l 1,29,-1
 167 218 l 1,23,-1
741 994 m 1,30,31
 759 982 759 982 757 959 c 2,32,-1
 718 517 l 1,33,-1
 630 570 l 1,34,-1
 633 607 l 1,35,-1
 649 782 l 1,36,-1
 656 866 l 1,37,-1
 741 994 l 1,30,31
269 907 m 1,38,-1
 147 981 l 1,39,40
 161 1000 161 1000 184 1000 c 2,41,-1
 720 1000 l 1,42,-1
 722 1000 l 1,43,-1
 660 907 l 1,44,-1
 657 907 l 1,45,-1
 626 907 l 1,46,-1
 490 907 l 1,47,-1
 398 907 l 1,48,-1
 269 907 l 1,38,-1
547 93 m 1,49,-1
 669 19 l 1,50,51
 655 0 655 0 632 0 c 2,52,-1
 96 0 l 1,53,-1
 94 0 l 1,54,-1
 156 93 l 1,55,-1
 159 93 l 1,56,-1
 190 93 l 1,57,-1
 326 93 l 1,58,-1
 418 93 l 1,59,-1
 547 93 l 1,49,-1
139 959 m 1,60,-1
 139 961 l 1,61,-1
 228 907 l 1,62,-1
 227 905 l 1,63,-1
 227 895 l 1,64,-1
 226 887 l 1,65,-1
 217 782 l 1,66,-1
 199 578 l 1,67,-1
 196 546 l 1,68,-1
 150 477 l 1,69,-1
 100 507 l 1,70,-1
 139 959 l 1,60,-1
EndSplineSet
Validated: 33
EndChar

StartChar: nine
Encoding: 57 57 27
Width: 816
Flags: W
LayerCount: 2
Fore
SplineSet
387 500 m 1,0,-1
 303 454 l 1,1,-1
 208 454 l 1,2,-1
 188 454 l 1,3,-1
 166 467 l 1,4,-1
 219 546 l 1,5,-1
 311 546 l 1,6,-1
 387 500 l 1,0,-1
628 546 m 1,7,-1
 650 533 l 1,8,-1
 597 454 l 1,9,-1
 505 454 l 1,10,-1
 429 500 l 1,11,-1
 513 546 l 1,12,-1
 628 546 l 1,7,-1
666 523 m 1,13,-1
 716 493 l 1,14,-1
 677 41 l 1,15,-1
 677 39 l 1,16,-1
 588 93 l 1,17,-1
 589 95 l 1,18,-1
 589 103 l 1,19,-1
 590 113 l 1,20,-1
 599 218 l 1,21,-1
 620 454 l 1,22,-1
 666 523 l 1,13,-1
741 994 m 1,23,24
 759 982 759 982 757 959 c 2,25,-1
 718 517 l 1,26,-1
 630 570 l 1,27,-1
 633 607 l 1,28,-1
 649 782 l 1,29,-1
 656 866 l 1,30,-1
 741 994 l 1,23,24
269 907 m 1,31,-1
 147 981 l 1,32,33
 161 1000 161 1000 184 1000 c 2,34,-1
 720 1000 l 1,35,-1
 722 1000 l 1,36,-1
 660 907 l 1,37,-1
 657 907 l 1,38,-1
 626 907 l 1,39,-1
 490 907 l 1,40,-1
 398 907 l 1,41,-1
 269 907 l 1,31,-1
547 93 m 1,42,-1
 669 19 l 1,43,44
 655 0 655 0 632 0 c 2,45,-1
 96 0 l 1,46,-1
 94 0 l 1,47,-1
 156 93 l 1,48,-1
 159 93 l 1,49,-1
 190 93 l 1,50,-1
 326 93 l 1,51,-1
 418 93 l 1,52,-1
 547 93 l 1,42,-1
139 959 m 1,53,-1
 139 961 l 1,54,-1
 228 907 l 1,55,-1
 227 905 l 1,56,-1
 227 895 l 1,57,-1
 226 887 l 1,58,-1
 217 782 l 1,59,-1
 199 578 l 1,60,-1
 196 546 l 1,61,-1
 150 477 l 1,62,-1
 100 507 l 1,63,-1
 139 959 l 1,53,-1
EndSplineSet
Validated: 33
EndChar

StartChar: colon
Encoding: 58 58 28
Width: 200
Flags: W
LayerCount: 2
Fore
SplineSet
100 486 m 1024,0,-1
180 693 m 128,-1,2
 180 681 180 681 175 669 c 128,-1,3
 170 657 170 657 162 649 c 128,-1,4
 154 641 154 641 142 636 c 128,-1,5
 130 631 130 631 118 631 c 128,-1,6
 106 631 106 631 94 636 c 128,-1,7
 82 641 82 641 74 649 c 128,-1,8
 66 657 66 657 61 669 c 128,-1,9
 56 681 56 681 56 693 c 128,-1,10
 56 705 56 705 61 717 c 0,11,12
 65 728 65 728 74 736 c 0,13,14
 84 746 84 746 94 750 c 0,15,16
 103 754 103 754 118 754 c 128,-1,17
 133 754 133 754 142 750 c 0,18,19
 153 746 153 746 162 736 c 0,20,21
 170 728 170 728 175 717 c 0,22,1
 180 705 180 705 180 693 c 128,-1,2
144 281 m 128,-1,24
 144 269 144 269 139 257 c 128,-1,25
 134 245 134 245 126 237 c 128,-1,26
 118 229 118 229 106 224 c 128,-1,27
 94 219 94 219 82 219 c 128,-1,28
 70 219 70 219 58 224 c 128,-1,29
 46 229 46 229 38 237 c 128,-1,30
 30 245 30 245 25 257 c 128,-1,31
 20 269 20 269 20 281 c 128,-1,32
 20 293 20 293 25 305 c 0,33,34
 29 316 29 316 38 324 c 0,35,36
 48 334 48 334 58 338 c 0,37,38
 67 342 67 342 82 342 c 128,-1,39
 97 342 97 342 106 338 c 0,40,41
 116 334 116 334 126 324 c 0,42,43
 134 316 134 316 139 305 c 0,44,23
 144 293 144 293 144 281 c 128,-1,24
EndSplineSet
Validated: 1
EndChar

StartChar: less
Encoding: 60 60 29
Width: 816
Flags: W
LayerCount: 2
Fore
SplineSet
492 707 m 1,0,-1
 612 887 l 1,1,-1
 638 887 l 1,2,-1
 626 746 l 1,3,-1
 505 564 l 1,4,-1
 426 521 l 1,5,-1
 492 707 l 1,0,-1
547 93 m 1,6,-1
 669 19 l 1,7,8
 655 0 655 0 632 0 c 2,9,-1
 96 0 l 1,10,11
 96 0 96 0 94 0 c 2,12,-1
 156 93 l 1,13,-1
 159 93 l 1,14,-1
 190 93 l 1,15,-1
 326 93 l 1,16,-1
 418 93 l 1,17,-1
 547 93 l 1,6,-1
324 293 m 1,18,-1
 204 113 l 1,19,-1
 178 113 l 1,20,-1
 190 254 l 1,21,-1
 311 436 l 1,22,-1
 390 479 l 1,23,-1
 324 293 l 1,18,-1
EndSplineSet
Validated: 1
EndChar

StartChar: equal
Encoding: 61 61 30
Width: 816
Flags: W
LayerCount: 2
Fore
SplineSet
387 500 m 1,0,-1
 303 454 l 1,1,-1
 208 454 l 1,2,-1
 188 454 l 1,3,-1
 166 467 l 1,4,-1
 219 546 l 1,5,-1
 311 546 l 1,6,-1
 387 500 l 1,0,-1
628 546 m 1,7,-1
 650 533 l 1,8,-1
 597 454 l 1,9,-1
 505 454 l 1,10,-1
 429 500 l 1,11,-1
 513 546 l 1,12,-1
 628 546 l 1,7,-1
547 93 m 1,13,-1
 669 19 l 1,14,15
 655 0 655 0 632 0 c 2,16,-1
 96 0 l 1,17,-1
 94 0 l 1,18,-1
 156 93 l 1,19,-1
 159 93 l 1,20,-1
 190 93 l 1,21,-1
 326 93 l 1,22,-1
 418 93 l 1,23,-1
 547 93 l 1,13,-1
EndSplineSet
Validated: 1
EndChar

StartChar: greater
Encoding: 62 62 31
Width: 816
Flags: W
LayerCount: 2
Fore
SplineSet
234 746 m 1,0,-1
 246 887 l 1,1,-1
 272 887 l 1,2,-1
 360 707 l 1,3,-1
 394 521 l 1,4,-1
 323 564 l 1,5,-1
 234 746 l 1,0,-1
547 93 m 1,6,-1
 669 19 l 1,7,8
 655 0 655 0 632 0 c 2,9,-1
 96 0 l 1,10,11
 96 0 96 0 94 0 c 2,12,-1
 156 93 l 1,13,-1
 159 93 l 1,14,-1
 190 93 l 1,15,-1
 326 93 l 1,16,-1
 418 93 l 1,17,-1
 547 93 l 1,6,-1
582 254 m 1,18,-1
 570 113 l 1,19,-1
 544 113 l 1,20,-1
 456 293 l 1,21,-1
 422 479 l 1,22,-1
 493 436 l 1,23,-1
 582 254 l 1,18,-1
EndSplineSet
Validated: 1
EndChar

StartChar: question
Encoding: 63 63 32
Width: 816
Flags: W
LayerCount: 2
Fore
SplineSet
628 546 m 1,0,-1
 650 533 l 1,1,-1
 597 454 l 1,2,-1
 505 454 l 1,3,-1
 429 500 l 1,4,-1
 513 546 l 1,5,-1
 628 546 l 1,0,-1
435 287 m 1,6,-1
 420 113 l 1,7,-1
 328 113 l 1,8,-1
 343 287 l 1,9,-1
 404 460 l 1,10,-1
 435 287 l 1,6,-1
741 994 m 1,11,12
 759 982 759 982 757 959 c 2,13,-1
 718 517 l 1,14,-1
 630 570 l 1,15,-1
 633 607 l 1,16,-1
 649 782 l 1,17,-1
 656 866 l 1,18,-1
 741 994 l 1,11,12
269 907 m 1,19,-1
 147 981 l 1,20,21
 161 1000 161 1000 184 1000 c 2,22,-1
 720 1000 l 1,23,24
 720 1000 720 1000 722 1000 c 2,25,-1
 660 907 l 1,26,-1
 657 907 l 1,27,-1
 626 907 l 1,28,-1
 490 907 l 1,29,-1
 398 907 l 1,30,-1
 269 907 l 1,19,-1
139 959 m 1,31,-1
 139 961 l 1,32,-1
 228 907 l 1,33,-1
 227 905 l 1,34,-1
 227 895 l 1,35,-1
 226 887 l 1,36,-1
 217 782 l 1,37,-1
 199 578 l 1,38,-1
 196 546 l 1,39,-1
 150 477 l 1,40,-1
 100 507 l 1,41,-1
 139 959 l 1,31,-1
EndSplineSet
Validated: 33
EndChar

StartChar: at
Encoding: 64 64 33
Width: 816
Flags: W
LayerCount: 2
Fore
SplineSet
628 546 m 1,0,-1
 650 533 l 1,1,-1
 597 454 l 1,2,-1
 505 454 l 1,3,-1
 429 500 l 1,4,-1
 513 546 l 1,5,-1
 628 546 l 1,0,-1
666 523 m 1,6,-1
 716 493 l 1,7,-1
 677 41 l 1,8,9
 677 41 677 41 677 39 c 2,10,-1
 588 93 l 1,11,-1
 589 95 l 1,12,-1
 589 103 l 1,13,-1
 590 113 l 1,14,-1
 599 218 l 1,15,-1
 620 454 l 1,16,-1
 666 523 l 1,6,-1
167 218 m 1,17,-1
 160 134 l 1,18,-1
 75 6 l 1,19,20
 57 18 57 18 59 41 c 2,21,-1
 98 483 l 1,22,-1
 186 430 l 1,23,-1
 167 218 l 1,17,-1
435 287 m 1,24,-1
 420 113 l 1,25,-1
 328 113 l 1,26,-1
 343 287 l 1,27,-1
 404 460 l 1,28,-1
 435 287 l 1,24,-1
741 994 m 1,29,30
 759 982 759 982 757 959 c 2,31,-1
 718 517 l 1,32,-1
 630 570 l 1,33,-1
 633 607 l 1,34,-1
 649 782 l 1,35,-1
 656 866 l 1,36,-1
 741 994 l 1,29,30
269 907 m 1,37,-1
 147 981 l 1,38,39
 161 1000 161 1000 184 1000 c 2,40,-1
 720 1000 l 1,41,-1
 722 1000 l 1,42,-1
 660 907 l 1,43,-1
 657 907 l 1,44,-1
 626 907 l 1,45,-1
 490 907 l 1,46,-1
 398 907 l 1,47,-1
 269 907 l 1,37,-1
547 93 m 1,48,-1
 669 19 l 1,49,50
 655 0 655 0 632 0 c 2,51,-1
 96 0 l 1,52,-1
 94 0 l 1,53,-1
 156 93 l 1,54,-1
 159 93 l 1,55,-1
 190 93 l 1,56,-1
 326 93 l 1,57,-1
 418 93 l 1,58,-1
 547 93 l 1,48,-1
139 959 m 1,59,-1
 139 961 l 1,60,-1
 228 907 l 1,61,-1
 227 905 l 1,62,-1
 227 895 l 1,63,-1
 226 887 l 1,64,-1
 217 782 l 1,65,-1
 199 578 l 1,66,-1
 196 546 l 1,67,-1
 150 477 l 1,68,-1
 100 507 l 1,69,-1
 139 959 l 1,59,-1
EndSplineSet
Validated: 33
EndChar

StartChar: A
Encoding: 65 65 34
Width: 816
Flags: W
LayerCount: 2
Fore
SplineSet
387 500 m 1,0,-1
 303 454 l 1,1,-1
 208 454 l 1,2,-1
 188 454 l 1,3,-1
 166 467 l 1,4,-1
 219 546 l 1,5,-1
 311 546 l 1,6,-1
 387 500 l 1,0,-1
628 546 m 1,7,-1
 650 533 l 1,8,-1
 597 454 l 1,9,-1
 505 454 l 1,10,-1
 429 500 l 1,11,-1
 513 546 l 1,12,-1
 628 546 l 1,7,-1
666 523 m 1,13,-1
 716 493 l 1,14,-1
 677 41 l 1,15,-1
 677 39 l 1,16,-1
 588 93 l 1,17,-1
 589 95 l 1,18,-1
 589 103 l 1,19,-1
 590 113 l 1,20,-1
 599 218 l 1,21,-1
 620 454 l 1,22,-1
 666 523 l 1,13,-1
167 218 m 1,23,-1
 160 134 l 1,24,-1
 75 6 l 1,25,26
 57 18 57 18 59 41 c 2,27,-1
 98 483 l 1,28,-1
 186 430 l 1,29,-1
 167 218 l 1,23,-1
741 994 m 1,30,31
 759 982 759 982 757 959 c 2,32,-1
 718 517 l 1,33,-1
 630 570 l 1,34,-1
 633 607 l 1,35,-1
 649 782 l 1,36,-1
 656 866 l 1,37,-1
 741 994 l 1,30,31
269 907 m 1,38,-1
 147 981 l 1,39,40
 161 1000 161 1000 184 1000 c 2,41,-1
 720 1000 l 1,42,-1
 722 1000 l 1,43,-1
 660 907 l 1,44,-1
 657 907 l 1,45,-1
 626 907 l 1,46,-1
 490 907 l 1,47,-1
 398 907 l 1,48,-1
 269 907 l 1,38,-1
139 959 m 1,49,-1
 139 961 l 1,50,-1
 228 907 l 1,51,-1
 227 905 l 1,52,-1
 227 895 l 1,53,-1
 226 887 l 1,54,-1
 217 782 l 1,55,-1
 199 578 l 1,56,-1
 196 546 l 1,57,-1
 150 477 l 1,58,-1
 100 507 l 1,59,-1
 139 959 l 1,49,-1
EndSplineSet
Validated: 33
EndChar

StartChar: B
Encoding: 66 66 35
Width: 816
Flags: W
LayerCount: 2
Fore
SplineSet
381 713 m 1,0,-1
 396 887 l 1,1,-1
 488 887 l 1,2,-1
 473 713 l 1,3,-1
 412 540 l 1,4,-1
 381 713 l 1,0,-1
628 546 m 1,5,-1
 650 533 l 1,6,-1
 597 454 l 1,7,-1
 505 454 l 1,8,-1
 429 500 l 1,9,-1
 513 546 l 1,10,-1
 628 546 l 1,5,-1
666 523 m 1,11,-1
 716 493 l 1,12,-1
 677 41 l 1,13,14
 677 41 677 41 677 39 c 2,15,-1
 588 93 l 1,16,-1
 589 95 l 1,17,-1
 589 103 l 1,18,-1
 590 113 l 1,19,-1
 599 218 l 1,20,-1
 620 454 l 1,21,-1
 666 523 l 1,11,-1
435 287 m 1,22,-1
 420 113 l 1,23,-1
 328 113 l 1,24,-1
 343 287 l 1,25,-1
 404 460 l 1,26,-1
 435 287 l 1,22,-1
741 994 m 1,27,28
 759 982 759 982 757 959 c 2,29,-1
 718 517 l 1,30,-1
 630 570 l 1,31,-1
 633 607 l 1,32,-1
 649 782 l 1,33,-1
 656 866 l 1,34,-1
 741 994 l 1,27,28
269 907 m 1,35,-1
 147 981 l 1,36,37
 161 1000 161 1000 184 1000 c 2,38,-1
 720 1000 l 1,39,-1
 722 1000 l 1,40,-1
 660 907 l 1,41,-1
 657 907 l 1,42,-1
 626 907 l 1,43,-1
 490 907 l 1,44,-1
 398 907 l 1,45,-1
 269 907 l 1,35,-1
547 93 m 1,46,-1
 669 19 l 1,47,48
 655 0 655 0 632 0 c 2,49,-1
 96 0 l 1,50,-1
 94 0 l 1,51,-1
 156 93 l 1,52,-1
 159 93 l 1,53,-1
 190 93 l 1,54,-1
 326 93 l 1,55,-1
 418 93 l 1,56,-1
 547 93 l 1,46,-1
EndSplineSet
Validated: 33
EndChar

StartChar: C
Encoding: 67 67 36
Width: 816
Flags: W
LayerCount: 2
Fore
SplineSet
167 218 m 1,0,-1
 160 134 l 1,1,-1
 75 6 l 1,2,3
 57 18 57 18 59 41 c 2,4,-1
 98 483 l 1,5,-1
 186 430 l 1,6,-1
 167 218 l 1,0,-1
269 907 m 1,7,-1
 147 981 l 1,8,9
 161 1000 161 1000 184 1000 c 2,10,-1
 720 1000 l 1,11,12
 720 1000 720 1000 722 1000 c 2,13,-1
 660 907 l 1,14,-1
 657 907 l 1,15,-1
 626 907 l 1,16,-1
 490 907 l 1,17,-1
 398 907 l 1,18,-1
 269 907 l 1,7,-1
547 93 m 1,19,-1
 669 19 l 1,20,21
 655 0 655 0 632 0 c 2,22,-1
 96 0 l 1,23,-1
 94 0 l 1,24,-1
 156 93 l 1,25,-1
 159 93 l 1,26,-1
 190 93 l 1,27,-1
 326 93 l 1,28,-1
 418 93 l 1,29,-1
 547 93 l 1,19,-1
139 959 m 1,30,-1
 139 961 l 1,31,-1
 228 907 l 1,32,-1
 227 905 l 1,33,-1
 227 895 l 1,34,-1
 226 887 l 1,35,-1
 217 782 l 1,36,-1
 199 578 l 1,37,-1
 196 546 l 1,38,-1
 150 477 l 1,39,-1
 100 507 l 1,40,-1
 139 959 l 1,30,-1
EndSplineSet
Validated: 33
EndChar

StartChar: D
Encoding: 68 68 37
Width: 816
Flags: W
LayerCount: 2
Fore
SplineSet
381 713 m 1,0,-1
 396 887 l 1,1,-1
 488 887 l 1,2,-1
 473 713 l 1,3,-1
 412 540 l 1,4,-1
 381 713 l 1,0,-1
666 523 m 1,5,-1
 716 493 l 1,6,-1
 677 41 l 1,7,8
 677 41 677 41 677 39 c 2,9,-1
 588 93 l 1,10,-1
 589 95 l 1,11,-1
 589 103 l 1,12,-1
 590 113 l 1,13,-1
 599 218 l 1,14,-1
 620 454 l 1,15,-1
 666 523 l 1,5,-1
435 287 m 1,16,-1
 420 113 l 1,17,-1
 328 113 l 1,18,-1
 343 287 l 1,19,-1
 404 460 l 1,20,-1
 435 287 l 1,16,-1
741 994 m 1,21,22
 759 982 759 982 757 959 c 2,23,-1
 718 517 l 1,24,-1
 630 570 l 1,25,-1
 633 607 l 1,26,-1
 649 782 l 1,27,-1
 656 866 l 1,28,-1
 741 994 l 1,21,22
269 907 m 1,29,-1
 147 981 l 1,30,31
 161 1000 161 1000 184 1000 c 2,32,-1
 720 1000 l 1,33,-1
 722 1000 l 1,34,-1
 660 907 l 1,35,-1
 657 907 l 1,36,-1
 626 907 l 1,37,-1
 490 907 l 1,38,-1
 398 907 l 1,39,-1
 269 907 l 1,29,-1
547 93 m 1,40,-1
 669 19 l 1,41,42
 655 0 655 0 632 0 c 2,43,-1
 96 0 l 1,44,-1
 94 0 l 1,45,-1
 156 93 l 1,46,-1
 159 93 l 1,47,-1
 190 93 l 1,48,-1
 326 93 l 1,49,-1
 418 93 l 1,50,-1
 547 93 l 1,40,-1
EndSplineSet
Validated: 33
EndChar

StartChar: E
Encoding: 69 69 38
Width: 816
Flags: W
LayerCount: 2
Fore
SplineSet
387 500 m 1,0,-1
 303 454 l 1,1,-1
 208 454 l 1,2,-1
 188 454 l 1,3,-1
 166 467 l 1,4,-1
 219 546 l 1,5,-1
 311 546 l 1,6,-1
 387 500 l 1,0,-1
628 546 m 1,7,-1
 650 533 l 1,8,-1
 597 454 l 1,9,-1
 505 454 l 1,10,-1
 429 500 l 1,11,-1
 513 546 l 1,12,-1
 628 546 l 1,7,-1
167 218 m 1,13,-1
 160 134 l 1,14,-1
 75 6 l 1,15,16
 57 18 57 18 59 41 c 2,17,-1
 98 483 l 1,18,-1
 186 430 l 1,19,-1
 167 218 l 1,13,-1
269 907 m 1,20,-1
 147 981 l 1,21,22
 161 1000 161 1000 184 1000 c 2,23,-1
 720 1000 l 1,24,-1
 722 1000 l 1,25,-1
 660 907 l 1,26,-1
 657 907 l 1,27,-1
 626 907 l 1,28,-1
 490 907 l 1,29,-1
 398 907 l 1,30,-1
 269 907 l 1,20,-1
547 93 m 1,31,-1
 669 19 l 1,32,33
 655 0 655 0 632 0 c 2,34,-1
 96 0 l 1,35,-1
 94 0 l 1,36,-1
 156 93 l 1,37,-1
 159 93 l 1,38,-1
 190 93 l 1,39,-1
 326 93 l 1,40,-1
 418 93 l 1,41,-1
 547 93 l 1,31,-1
139 959 m 1,42,-1
 139 961 l 1,43,-1
 228 907 l 1,44,-1
 227 905 l 1,45,-1
 227 895 l 1,46,-1
 226 887 l 1,47,-1
 217 782 l 1,48,-1
 199 578 l 1,49,-1
 196 546 l 1,50,-1
 150 477 l 1,51,-1
 100 507 l 1,52,-1
 139 959 l 1,42,-1
EndSplineSet
Validated: 33
EndChar

StartChar: F
Encoding: 70 70 39
Width: 816
Flags: W
LayerCount: 2
Fore
SplineSet
387 500 m 1,0,-1
 303 454 l 1,1,-1
 208 454 l 1,2,-1
 188 454 l 1,3,-1
 166 467 l 1,4,-1
 219 546 l 1,5,-1
 311 546 l 1,6,-1
 387 500 l 1,0,-1
628 546 m 1,7,-1
 650 533 l 1,8,-1
 597 454 l 1,9,-1
 505 454 l 1,10,-1
 429 500 l 1,11,-1
 513 546 l 1,12,-1
 628 546 l 1,7,-1
167 218 m 1,13,-1
 160 134 l 1,14,-1
 75 6 l 1,15,16
 57 18 57 18 59 41 c 2,17,-1
 98 483 l 1,18,-1
 186 430 l 1,19,-1
 167 218 l 1,13,-1
269 907 m 1,20,-1
 147 981 l 1,21,22
 161 1000 161 1000 184 1000 c 2,23,-1
 720 1000 l 1,24,-1
 722 1000 l 1,25,-1
 660 907 l 1,26,-1
 657 907 l 1,27,-1
 626 907 l 1,28,-1
 490 907 l 1,29,-1
 398 907 l 1,30,-1
 269 907 l 1,20,-1
139 959 m 1,31,-1
 139 961 l 1,32,-1
 228 907 l 1,33,-1
 227 905 l 1,34,-1
 227 895 l 1,35,-1
 226 887 l 1,36,-1
 217 782 l 1,37,-1
 199 578 l 1,38,-1
 196 546 l 1,39,-1
 150 477 l 1,40,-1
 100 507 l 1,41,-1
 139 959 l 1,31,-1
EndSplineSet
Validated: 33
EndChar

StartChar: G
Encoding: 71 71 40
Width: 816
Flags: W
LayerCount: 2
Fore
SplineSet
628 546 m 1,0,-1
 650 533 l 1,1,-1
 597 454 l 1,2,-1
 505 454 l 1,3,-1
 429 500 l 1,4,-1
 513 546 l 1,5,-1
 628 546 l 1,0,-1
666 523 m 1,6,-1
 716 493 l 1,7,-1
 677 41 l 1,8,9
 677 41 677 41 677 39 c 2,10,-1
 588 93 l 1,11,-1
 589 95 l 1,12,-1
 589 103 l 1,13,-1
 590 113 l 1,14,-1
 599 218 l 1,15,-1
 620 454 l 1,16,-1
 666 523 l 1,6,-1
167 218 m 1,17,-1
 160 134 l 1,18,-1
 75 6 l 1,19,20
 57 18 57 18 59 41 c 2,21,-1
 98 483 l 1,22,-1
 186 430 l 1,23,-1
 167 218 l 1,17,-1
269 907 m 1,24,-1
 147 981 l 1,25,26
 161 1000 161 1000 184 1000 c 2,27,-1
 720 1000 l 1,28,-1
 722 1000 l 1,29,-1
 660 907 l 1,30,-1
 657 907 l 1,31,-1
 626 907 l 1,32,-1
 490 907 l 1,33,-1
 398 907 l 1,34,-1
 269 907 l 1,24,-1
547 93 m 1,35,-1
 669 19 l 1,36,37
 655 0 655 0 632 0 c 2,38,-1
 96 0 l 1,39,-1
 94 0 l 1,40,-1
 156 93 l 1,41,-1
 159 93 l 1,42,-1
 190 93 l 1,43,-1
 326 93 l 1,44,-1
 418 93 l 1,45,-1
 547 93 l 1,35,-1
139 959 m 1,46,-1
 139 961 l 1,47,-1
 228 907 l 1,48,-1
 227 905 l 1,49,-1
 227 895 l 1,50,-1
 226 887 l 1,51,-1
 217 782 l 1,52,-1
 199 578 l 1,53,-1
 196 546 l 1,54,-1
 150 477 l 1,55,-1
 100 507 l 1,56,-1
 139 959 l 1,46,-1
EndSplineSet
Validated: 33
EndChar

StartChar: H
Encoding: 72 72 41
Width: 816
Flags: W
LayerCount: 2
Fore
SplineSet
387 500 m 1,0,-1
 303 454 l 1,1,-1
 208 454 l 1,2,-1
 188 454 l 1,3,-1
 166 467 l 1,4,-1
 219 546 l 1,5,-1
 311 546 l 1,6,-1
 387 500 l 1,0,-1
628 546 m 1,7,-1
 650 533 l 1,8,-1
 597 454 l 1,9,-1
 505 454 l 1,10,-1
 429 500 l 1,11,-1
 513 546 l 1,12,-1
 628 546 l 1,7,-1
666 523 m 1,13,-1
 716 493 l 1,14,-1
 677 41 l 1,15,-1
 677 39 l 1,16,-1
 588 93 l 1,17,-1
 589 95 l 1,18,-1
 589 103 l 1,19,-1
 590 113 l 1,20,-1
 599 218 l 1,21,-1
 620 454 l 1,22,-1
 666 523 l 1,13,-1
167 218 m 1,23,-1
 160 134 l 1,24,-1
 75 6 l 1,25,26
 57 18 57 18 59 41 c 2,27,-1
 98 483 l 1,28,-1
 186 430 l 1,29,-1
 167 218 l 1,23,-1
741 994 m 1,30,31
 759 982 759 982 757 959 c 2,32,-1
 718 517 l 1,33,-1
 630 570 l 1,34,-1
 633 607 l 1,35,-1
 649 782 l 1,36,-1
 656 866 l 1,37,-1
 741 994 l 1,30,31
139 959 m 1,38,-1
 139 961 l 1,39,-1
 228 907 l 1,40,-1
 227 905 l 1,41,-1
 227 895 l 1,42,-1
 226 887 l 1,43,-1
 217 782 l 1,44,-1
 199 578 l 1,45,-1
 196 546 l 1,46,-1
 150 477 l 1,47,-1
 100 507 l 1,48,-1
 139 959 l 1,38,-1
EndSplineSet
Validated: 33
EndChar

StartChar: I
Encoding: 73 73 42
Width: 816
Flags: W
LayerCount: 2
Fore
SplineSet
381 713 m 1,0,-1
 396 887 l 1,1,-1
 488 887 l 1,2,-1
 473 713 l 1,3,-1
 412 540 l 1,4,-1
 381 713 l 1,0,-1
435 287 m 1,5,-1
 420 113 l 1,6,-1
 328 113 l 1,7,-1
 343 287 l 1,8,-1
 404 460 l 1,9,-1
 435 287 l 1,5,-1
269 907 m 1,10,-1
 147 981 l 1,11,12
 161 1000 161 1000 184 1000 c 2,13,-1
 720 1000 l 1,14,15
 720 1000 720 1000 722 1000 c 2,16,-1
 660 907 l 1,17,-1
 657 907 l 1,18,-1
 626 907 l 1,19,-1
 490 907 l 1,20,-1
 398 907 l 1,21,-1
 269 907 l 1,10,-1
547 93 m 1,22,-1
 669 19 l 1,23,24
 655 0 655 0 632 0 c 2,25,-1
 96 0 l 1,26,-1
 94 0 l 1,27,-1
 156 93 l 1,28,-1
 159 93 l 1,29,-1
 190 93 l 1,30,-1
 326 93 l 1,31,-1
 418 93 l 1,32,-1
 547 93 l 1,22,-1
EndSplineSet
Validated: 1
EndChar

StartChar: J
Encoding: 74 74 43
Width: 816
Flags: W
LayerCount: 2
Fore
SplineSet
666 523 m 1,0,-1
 716 493 l 1,1,-1
 677 41 l 1,2,3
 677 41 677 41 677 39 c 2,4,-1
 588 93 l 1,5,-1
 589 95 l 1,6,-1
 589 103 l 1,7,-1
 590 113 l 1,8,-1
 599 218 l 1,9,-1
 620 454 l 1,10,-1
 666 523 l 1,0,-1
167 218 m 1,11,-1
 160 134 l 1,12,-1
 75 6 l 1,13,14
 57 18 57 18 59 41 c 2,15,-1
 98 483 l 1,16,-1
 186 430 l 1,17,-1
 167 218 l 1,11,-1
741 994 m 1,18,19
 759 982 759 982 757 959 c 2,20,-1
 718 517 l 1,21,-1
 630 570 l 1,22,-1
 633 607 l 1,23,-1
 649 782 l 1,24,-1
 656 866 l 1,25,-1
 741 994 l 1,18,19
547 93 m 1,26,-1
 669 19 l 1,27,28
 655 0 655 0 632 0 c 2,29,-1
 96 0 l 1,30,-1
 94 0 l 1,31,-1
 156 93 l 1,32,-1
 159 93 l 1,33,-1
 190 93 l 1,34,-1
 326 93 l 1,35,-1
 418 93 l 1,36,-1
 547 93 l 1,26,-1
EndSplineSet
Validated: 33
EndChar

StartChar: K
Encoding: 75 75 44
Width: 816
Flags: W
LayerCount: 2
Fore
SplineSet
387 500 m 1,0,-1
 303 454 l 1,1,-1
 208 454 l 1,2,-1
 188 454 l 1,3,-1
 166 467 l 1,4,-1
 219 546 l 1,5,-1
 311 546 l 1,6,-1
 387 500 l 1,0,-1
167 218 m 1,7,-1
 160 134 l 1,8,-1
 75 6 l 1,9,10
 57 18 57 18 59 41 c 2,11,-1
 98 483 l 1,12,-1
 186 430 l 1,13,-1
 167 218 l 1,7,-1
492 707 m 1,14,-1
 612 887 l 1,15,-1
 638 887 l 1,16,-1
 626 746 l 1,17,-1
 505 564 l 1,18,-1
 426 521 l 1,19,-1
 492 707 l 1,14,-1
582 254 m 1,20,-1
 570 113 l 1,21,-1
 544 113 l 1,22,-1
 456 293 l 1,23,-1
 422 479 l 1,24,-1
 493 436 l 1,25,-1
 582 254 l 1,20,-1
139 959 m 1,26,-1
 139 961 l 1,27,-1
 228 907 l 1,28,-1
 227 905 l 1,29,-1
 227 895 l 1,30,-1
 226 887 l 1,31,-1
 217 782 l 1,32,-1
 199 578 l 1,33,-1
 196 546 l 1,34,-1
 150 477 l 1,35,-1
 100 507 l 1,36,-1
 139 959 l 1,26,-1
EndSplineSet
Validated: 33
EndChar

StartChar: L
Encoding: 76 76 45
Width: 816
Flags: W
LayerCount: 2
Fore
SplineSet
167 218 m 1,0,-1
 160 134 l 1,1,-1
 75 6 l 1,2,3
 57 18 57 18 59 41 c 2,4,-1
 98 483 l 1,5,-1
 186 430 l 1,6,-1
 167 218 l 1,0,-1
547 93 m 1,7,-1
 669 19 l 1,8,9
 655 0 655 0 632 0 c 2,10,-1
 96 0 l 1,11,12
 96 0 96 0 94 0 c 2,13,-1
 156 93 l 1,14,-1
 159 93 l 1,15,-1
 190 93 l 1,16,-1
 326 93 l 1,17,-1
 418 93 l 1,18,-1
 547 93 l 1,7,-1
139 959 m 1,19,20
 139 959 139 959 139 961 c 2,21,-1
 228 907 l 1,22,-1
 227 905 l 1,23,-1
 227 895 l 1,24,-1
 226 887 l 1,25,-1
 217 782 l 1,26,-1
 199 578 l 1,27,-1
 196 546 l 1,28,-1
 150 477 l 1,29,-1
 100 507 l 1,30,-1
 139 959 l 1,19,20
EndSplineSet
Validated: 33
EndChar

StartChar: M
Encoding: 77 77 46
Width: 816
Flags: W
LayerCount: 2
Fore
SplineSet
234 746 m 1,0,-1
 246 887 l 1,1,-1
 272 887 l 1,2,-1
 360 707 l 1,3,-1
 394 521 l 1,4,-1
 323 564 l 1,5,-1
 234 746 l 1,0,-1
666 523 m 1,6,-1
 716 493 l 1,7,-1
 677 41 l 1,8,9
 677 41 677 41 677 39 c 2,10,-1
 588 93 l 1,11,-1
 589 95 l 1,12,-1
 589 103 l 1,13,-1
 590 113 l 1,14,-1
 599 218 l 1,15,-1
 620 454 l 1,16,-1
 666 523 l 1,6,-1
167 218 m 1,17,-1
 160 134 l 1,18,-1
 75 6 l 1,19,20
 57 18 57 18 59 41 c 2,21,-1
 98 483 l 1,22,-1
 186 430 l 1,23,-1
 167 218 l 1,17,-1
492 707 m 1,24,-1
 612 887 l 1,25,-1
 638 887 l 1,26,-1
 626 746 l 1,27,-1
 505 564 l 1,28,-1
 426 521 l 1,29,-1
 492 707 l 1,24,-1
435 287 m 1,30,-1
 420 113 l 1,31,-1
 328 113 l 1,32,-1
 343 287 l 1,33,-1
 404 460 l 1,34,-1
 435 287 l 1,30,-1
741 994 m 1,35,36
 759 982 759 982 757 959 c 2,37,-1
 718 517 l 1,38,-1
 630 570 l 1,39,-1
 633 607 l 1,40,-1
 649 782 l 1,41,-1
 656 866 l 1,42,-1
 741 994 l 1,35,36
139 959 m 1,43,-1
 139 961 l 1,44,-1
 228 907 l 1,45,-1
 227 905 l 1,46,-1
 227 895 l 1,47,-1
 226 887 l 1,48,-1
 217 782 l 1,49,-1
 199 578 l 1,50,-1
 196 546 l 1,51,-1
 150 477 l 1,52,-1
 100 507 l 1,53,-1
 139 959 l 1,43,-1
EndSplineSet
Validated: 33
EndChar

StartChar: N
Encoding: 78 78 47
Width: 816
Flags: W
LayerCount: 2
Fore
SplineSet
234 746 m 1,0,-1
 246 887 l 1,1,-1
 272 887 l 1,2,-1
 360 707 l 1,3,-1
 394 521 l 1,4,-1
 323 564 l 1,5,-1
 234 746 l 1,0,-1
666 523 m 1,6,-1
 716 493 l 1,7,-1
 677 41 l 1,8,9
 677 41 677 41 677 39 c 2,10,-1
 588 93 l 1,11,-1
 589 95 l 1,12,-1
 589 103 l 1,13,-1
 590 113 l 1,14,-1
 599 218 l 1,15,-1
 620 454 l 1,16,-1
 666 523 l 1,6,-1
167 218 m 1,17,-1
 160 134 l 1,18,-1
 75 6 l 1,19,20
 57 18 57 18 59 41 c 2,21,-1
 98 483 l 1,22,-1
 186 430 l 1,23,-1
 167 218 l 1,17,-1
741 994 m 1,24,25
 759 982 759 982 757 959 c 2,26,-1
 718 517 l 1,27,-1
 630 570 l 1,28,-1
 633 607 l 1,29,-1
 649 782 l 1,30,-1
 656 866 l 1,31,-1
 741 994 l 1,24,25
582 254 m 1,32,-1
 570 113 l 1,33,-1
 544 113 l 1,34,-1
 456 293 l 1,35,-1
 422 479 l 1,36,-1
 493 436 l 1,37,-1
 582 254 l 1,32,-1
139 959 m 1,38,-1
 139 961 l 1,39,-1
 228 907 l 1,40,-1
 227 905 l 1,41,-1
 227 895 l 1,42,-1
 226 887 l 1,43,-1
 217 782 l 1,44,-1
 199 578 l 1,45,-1
 196 546 l 1,46,-1
 150 477 l 1,47,-1
 100 507 l 1,48,-1
 139 959 l 1,38,-1
EndSplineSet
Validated: 33
EndChar

StartChar: O
Encoding: 79 79 48
Width: 816
Flags: W
LayerCount: 2
Fore
SplineSet
666 523 m 1,0,-1
 716 493 l 1,1,-1
 677 41 l 1,2,3
 677 41 677 41 677 39 c 2,4,-1
 588 93 l 1,5,-1
 589 95 l 1,6,-1
 589 103 l 1,7,-1
 590 113 l 1,8,-1
 599 218 l 1,9,-1
 620 454 l 1,10,-1
 666 523 l 1,0,-1
167 218 m 1,11,-1
 160 134 l 1,12,-1
 75 6 l 1,13,14
 57 18 57 18 59 41 c 2,15,-1
 98 483 l 1,16,-1
 186 430 l 1,17,-1
 167 218 l 1,11,-1
741 994 m 1,18,19
 759 982 759 982 757 959 c 2,20,-1
 718 517 l 1,21,-1
 630 570 l 1,22,-1
 633 607 l 1,23,-1
 649 782 l 1,24,-1
 656 866 l 1,25,-1
 741 994 l 1,18,19
269 907 m 1,26,-1
 147 981 l 1,27,28
 161 1000 161 1000 184 1000 c 2,29,-1
 720 1000 l 1,30,-1
 722 1000 l 1,31,-1
 660 907 l 1,32,-1
 657 907 l 1,33,-1
 626 907 l 1,34,-1
 490 907 l 1,35,-1
 398 907 l 1,36,-1
 269 907 l 1,26,-1
547 93 m 1,37,-1
 669 19 l 1,38,39
 655 0 655 0 632 0 c 2,40,-1
 96 0 l 1,41,-1
 94 0 l 1,42,-1
 156 93 l 1,43,-1
 159 93 l 1,44,-1
 190 93 l 1,45,-1
 326 93 l 1,46,-1
 418 93 l 1,47,-1
 547 93 l 1,37,-1
139 959 m 1,48,-1
 139 961 l 1,49,-1
 228 907 l 1,50,-1
 227 905 l 1,51,-1
 227 895 l 1,52,-1
 226 887 l 1,53,-1
 217 782 l 1,54,-1
 199 578 l 1,55,-1
 196 546 l 1,56,-1
 150 477 l 1,57,-1
 100 507 l 1,58,-1
 139 959 l 1,48,-1
EndSplineSet
Validated: 33
EndChar

StartChar: P
Encoding: 80 80 49
Width: 816
Flags: W
LayerCount: 2
Fore
SplineSet
387 500 m 1,0,-1
 303 454 l 1,1,-1
 208 454 l 1,2,-1
 188 454 l 1,3,-1
 166 467 l 1,4,-1
 219 546 l 1,5,-1
 311 546 l 1,6,-1
 387 500 l 1,0,-1
628 546 m 1,7,-1
 650 533 l 1,8,-1
 597 454 l 1,9,-1
 505 454 l 1,10,-1
 429 500 l 1,11,-1
 513 546 l 1,12,-1
 628 546 l 1,7,-1
167 218 m 1,13,-1
 160 134 l 1,14,-1
 75 6 l 1,15,16
 57 18 57 18 59 41 c 2,17,-1
 98 483 l 1,18,-1
 186 430 l 1,19,-1
 167 218 l 1,13,-1
741 994 m 1,20,21
 759 982 759 982 757 959 c 2,22,-1
 718 517 l 1,23,-1
 630 570 l 1,24,-1
 633 607 l 1,25,-1
 649 782 l 1,26,-1
 656 866 l 1,27,-1
 741 994 l 1,20,21
269 907 m 1,28,-1
 147 981 l 1,29,30
 161 1000 161 1000 184 1000 c 2,31,-1
 720 1000 l 1,32,-1
 722 1000 l 1,33,-1
 660 907 l 1,34,-1
 657 907 l 1,35,-1
 626 907 l 1,36,-1
 490 907 l 1,37,-1
 398 907 l 1,38,-1
 269 907 l 1,28,-1
139 959 m 1,39,-1
 139 961 l 1,40,-1
 228 907 l 1,41,-1
 227 905 l 1,42,-1
 227 895 l 1,43,-1
 226 887 l 1,44,-1
 217 782 l 1,45,-1
 199 578 l 1,46,-1
 196 546 l 1,47,-1
 150 477 l 1,48,-1
 100 507 l 1,49,-1
 139 959 l 1,39,-1
EndSplineSet
Validated: 33
EndChar

StartChar: Q
Encoding: 81 81 50
Width: 816
Flags: W
LayerCount: 2
Fore
SplineSet
666 523 m 1,0,-1
 716 493 l 1,1,-1
 677 41 l 1,2,3
 677 41 677 41 677 39 c 2,4,-1
 588 93 l 1,5,-1
 589 95 l 1,6,-1
 589 103 l 1,7,-1
 590 113 l 1,8,-1
 599 218 l 1,9,-1
 620 454 l 1,10,-1
 666 523 l 1,0,-1
167 218 m 1,11,-1
 160 134 l 1,12,-1
 75 6 l 1,13,14
 57 18 57 18 59 41 c 2,15,-1
 98 483 l 1,16,-1
 186 430 l 1,17,-1
 167 218 l 1,11,-1
741 994 m 1,18,19
 759 982 759 982 757 959 c 2,20,-1
 718 517 l 1,21,-1
 630 570 l 1,22,-1
 633 607 l 1,23,-1
 649 782 l 1,24,-1
 656 866 l 1,25,-1
 741 994 l 1,18,19
269 907 m 1,26,-1
 147 981 l 1,27,28
 161 1000 161 1000 184 1000 c 2,29,-1
 720 1000 l 1,30,-1
 722 1000 l 1,31,-1
 660 907 l 1,32,-1
 657 907 l 1,33,-1
 626 907 l 1,34,-1
 490 907 l 1,35,-1
 398 907 l 1,36,-1
 269 907 l 1,26,-1
547 93 m 1,37,-1
 669 19 l 1,38,39
 655 0 655 0 632 0 c 2,40,-1
 96 0 l 1,41,-1
 94 0 l 1,42,-1
 156 93 l 1,43,-1
 159 93 l 1,44,-1
 190 93 l 1,45,-1
 326 93 l 1,46,-1
 418 93 l 1,47,-1
 547 93 l 1,37,-1
582 254 m 1,48,-1
 570 113 l 1,49,-1
 544 113 l 1,50,-1
 456 293 l 1,51,-1
 422 479 l 1,52,-1
 493 436 l 1,53,-1
 582 254 l 1,48,-1
139 959 m 1,54,-1
 139 961 l 1,55,-1
 228 907 l 1,56,-1
 227 905 l 1,57,-1
 227 895 l 1,58,-1
 226 887 l 1,59,-1
 217 782 l 1,60,-1
 199 578 l 1,61,-1
 196 546 l 1,62,-1
 150 477 l 1,63,-1
 100 507 l 1,64,-1
 139 959 l 1,54,-1
EndSplineSet
Validated: 33
EndChar

StartChar: R
Encoding: 82 82 51
Width: 816
Flags: W
LayerCount: 2
Fore
SplineSet
387 500 m 1,0,-1
 303 454 l 1,1,-1
 208 454 l 1,2,-1
 188 454 l 1,3,-1
 166 467 l 1,4,-1
 219 546 l 1,5,-1
 311 546 l 1,6,-1
 387 500 l 1,0,-1
628 546 m 1,7,-1
 650 533 l 1,8,-1
 597 454 l 1,9,-1
 505 454 l 1,10,-1
 429 500 l 1,11,-1
 513 546 l 1,12,-1
 628 546 l 1,7,-1
167 218 m 1,13,-1
 160 134 l 1,14,-1
 75 6 l 1,15,16
 57 18 57 18 59 41 c 2,17,-1
 98 483 l 1,18,-1
 186 430 l 1,19,-1
 167 218 l 1,13,-1
741 994 m 1,20,21
 759 982 759 982 757 959 c 2,22,-1
 718 517 l 1,23,-1
 630 570 l 1,24,-1
 633 607 l 1,25,-1
 649 782 l 1,26,-1
 656 866 l 1,27,-1
 741 994 l 1,20,21
269 907 m 1,28,-1
 147 981 l 1,29,30
 161 1000 161 1000 184 1000 c 2,31,-1
 720 1000 l 1,32,-1
 722 1000 l 1,33,-1
 660 907 l 1,34,-1
 657 907 l 1,35,-1
 626 907 l 1,36,-1
 490 907 l 1,37,-1
 398 907 l 1,38,-1
 269 907 l 1,28,-1
582 254 m 1,39,-1
 570 113 l 1,40,-1
 544 113 l 1,41,-1
 456 293 l 1,42,-1
 422 479 l 1,43,-1
 493 436 l 1,44,-1
 582 254 l 1,39,-1
139 959 m 1,45,-1
 139 961 l 1,46,-1
 228 907 l 1,47,-1
 227 905 l 1,48,-1
 227 895 l 1,49,-1
 226 887 l 1,50,-1
 217 782 l 1,51,-1
 199 578 l 1,52,-1
 196 546 l 1,53,-1
 150 477 l 1,54,-1
 100 507 l 1,55,-1
 139 959 l 1,45,-1
EndSplineSet
Validated: 33
EndChar

StartChar: S
Encoding: 83 83 52
Width: 816
Flags: W
LayerCount: 2
Fore
SplineSet
387 500 m 1,0,-1
 303 454 l 1,1,-1
 208 454 l 1,2,-1
 188 454 l 1,3,-1
 166 467 l 1,4,-1
 219 546 l 1,5,-1
 311 546 l 1,6,-1
 387 500 l 1,0,-1
628 546 m 1,7,-1
 650 533 l 1,8,-1
 597 454 l 1,9,-1
 505 454 l 1,10,-1
 429 500 l 1,11,-1
 513 546 l 1,12,-1
 628 546 l 1,7,-1
234 746 m 1,13,-1
 246 887 l 1,14,-1
 272 887 l 1,15,-1
 360 707 l 1,16,-1
 394 521 l 1,17,-1
 323 564 l 1,18,-1
 234 746 l 1,13,-1
666 523 m 1,19,-1
 716 493 l 1,20,-1
 677 41 l 1,21,-1
 677 39 l 1,22,-1
 588 93 l 1,23,-1
 589 95 l 1,24,-1
 589 103 l 1,25,-1
 590 113 l 1,26,-1
 599 218 l 1,27,-1
 620 454 l 1,28,-1
 666 523 l 1,19,-1
269 907 m 1,29,-1
 147 981 l 1,30,31
 161 1000 161 1000 184 1000 c 2,32,-1
 720 1000 l 1,33,-1
 722 1000 l 1,34,-1
 660 907 l 1,35,-1
 657 907 l 1,36,-1
 626 907 l 1,37,-1
 490 907 l 1,38,-1
 398 907 l 1,39,-1
 269 907 l 1,29,-1
547 93 m 1,40,-1
 669 19 l 1,41,42
 655 0 655 0 632 0 c 2,43,-1
 96 0 l 1,44,-1
 94 0 l 1,45,-1
 156 93 l 1,46,-1
 159 93 l 1,47,-1
 190 93 l 1,48,-1
 326 93 l 1,49,-1
 418 93 l 1,50,-1
 547 93 l 1,40,-1
582 254 m 1,51,-1
 570 113 l 1,52,-1
 544 113 l 1,53,-1
 456 293 l 1,54,-1
 422 479 l 1,55,-1
 493 436 l 1,56,-1
 582 254 l 1,51,-1
139 959 m 1,57,-1
 139 961 l 1,58,-1
 228 907 l 1,59,-1
 227 905 l 1,60,-1
 227 895 l 1,61,-1
 226 887 l 1,62,-1
 217 782 l 1,63,-1
 199 578 l 1,64,-1
 196 546 l 1,65,-1
 150 477 l 1,66,-1
 100 507 l 1,67,-1
 139 959 l 1,57,-1
EndSplineSet
Validated: 1
EndChar

StartChar: T
Encoding: 84 84 53
Width: 816
Flags: W
LayerCount: 2
Fore
SplineSet
381 713 m 1,0,-1
 396 887 l 1,1,-1
 488 887 l 1,2,-1
 473 713 l 1,3,-1
 412 540 l 1,4,-1
 381 713 l 1,0,-1
435 287 m 1,5,-1
 420 113 l 1,6,-1
 328 113 l 1,7,-1
 343 287 l 1,8,-1
 404 460 l 1,9,-1
 435 287 l 1,5,-1
269 907 m 1,10,-1
 147 981 l 1,11,12
 161 1000 161 1000 184 1000 c 2,13,-1
 720 1000 l 1,14,15
 720 1000 720 1000 722 1000 c 2,16,-1
 660 907 l 1,17,-1
 657 907 l 1,18,-1
 626 907 l 1,19,-1
 490 907 l 1,20,-1
 398 907 l 1,21,-1
 269 907 l 1,10,-1
EndSplineSet
Validated: 1
EndChar

StartChar: U
Encoding: 85 85 54
Width: 816
Flags: W
LayerCount: 2
Fore
SplineSet
666 523 m 1,0,-1
 716 493 l 1,1,-1
 677 41 l 1,2,3
 677 41 677 41 677 39 c 2,4,-1
 588 93 l 1,5,-1
 589 95 l 1,6,-1
 589 103 l 1,7,-1
 590 113 l 1,8,-1
 599 218 l 1,9,-1
 620 454 l 1,10,-1
 666 523 l 1,0,-1
167 218 m 1,11,-1
 160 134 l 1,12,-1
 75 6 l 1,13,14
 57 18 57 18 59 41 c 2,15,-1
 98 483 l 1,16,-1
 186 430 l 1,17,-1
 167 218 l 1,11,-1
741 994 m 1,18,19
 759 982 759 982 757 959 c 2,20,-1
 718 517 l 1,21,-1
 630 570 l 1,22,-1
 633 607 l 1,23,-1
 649 782 l 1,24,-1
 656 866 l 1,25,-1
 741 994 l 1,18,19
547 93 m 1,26,-1
 669 19 l 1,27,28
 655 0 655 0 632 0 c 2,29,-1
 96 0 l 1,30,-1
 94 0 l 1,31,-1
 156 93 l 1,32,-1
 159 93 l 1,33,-1
 190 93 l 1,34,-1
 326 93 l 1,35,-1
 418 93 l 1,36,-1
 547 93 l 1,26,-1
139 959 m 1,37,-1
 139 961 l 1,38,-1
 228 907 l 1,39,-1
 227 905 l 1,40,-1
 227 895 l 1,41,-1
 226 887 l 1,42,-1
 217 782 l 1,43,-1
 199 578 l 1,44,-1
 196 546 l 1,45,-1
 150 477 l 1,46,-1
 100 507 l 1,47,-1
 139 959 l 1,37,-1
EndSplineSet
Validated: 33
EndChar

StartChar: V
Encoding: 86 86 55
Width: 816
Flags: W
LayerCount: 2
Fore
SplineSet
167 218 m 1,0,-1
 160 134 l 1,1,-1
 75 6 l 1,2,3
 57 18 57 18 59 41 c 2,4,-1
 98 483 l 1,5,-1
 186 430 l 1,6,-1
 167 218 l 1,0,-1
492 707 m 1,7,-1
 612 887 l 1,8,-1
 638 887 l 1,9,-1
 626 746 l 1,10,-1
 505 564 l 1,11,-1
 426 521 l 1,12,-1
 492 707 l 1,7,-1
324 293 m 1,13,-1
 204 113 l 1,14,-1
 178 113 l 1,15,-1
 190 254 l 1,16,-1
 311 436 l 1,17,-1
 390 479 l 1,18,-1
 324 293 l 1,13,-1
139 959 m 1,19,20
 139 959 139 959 139 961 c 2,21,-1
 228 907 l 1,22,-1
 227 905 l 1,23,-1
 227 895 l 1,24,-1
 226 887 l 1,25,-1
 217 782 l 1,26,-1
 199 578 l 1,27,-1
 196 546 l 1,28,-1
 150 477 l 1,29,-1
 100 507 l 1,30,-1
 139 959 l 1,19,20
EndSplineSet
Validated: 33
EndChar

StartChar: W
Encoding: 87 87 56
Width: 816
Flags: W
LayerCount: 2
Fore
SplineSet
381 713 m 1,0,-1
 396 887 l 1,1,-1
 488 887 l 1,2,-1
 473 713 l 1,3,-1
 412 540 l 1,4,-1
 381 713 l 1,0,-1
666 523 m 1,5,-1
 716 493 l 1,6,-1
 677 41 l 1,7,8
 677 41 677 41 677 39 c 2,9,-1
 588 93 l 1,10,-1
 589 95 l 1,11,-1
 589 103 l 1,12,-1
 590 113 l 1,13,-1
 599 218 l 1,14,-1
 620 454 l 1,15,-1
 666 523 l 1,5,-1
167 218 m 1,16,-1
 160 134 l 1,17,-1
 75 6 l 1,18,19
 57 18 57 18 59 41 c 2,20,-1
 98 483 l 1,21,-1
 186 430 l 1,22,-1
 167 218 l 1,16,-1
741 994 m 1,23,24
 759 982 759 982 757 959 c 2,25,-1
 718 517 l 1,26,-1
 630 570 l 1,27,-1
 633 607 l 1,28,-1
 649 782 l 1,29,-1
 656 866 l 1,30,-1
 741 994 l 1,23,24
324 293 m 1,31,-1
 204 113 l 1,32,-1
 178 113 l 1,33,-1
 190 254 l 1,34,-1
 311 436 l 1,35,-1
 390 479 l 1,36,-1
 324 293 l 1,31,-1
582 254 m 1,37,-1
 570 113 l 1,38,-1
 544 113 l 1,39,-1
 456 293 l 1,40,-1
 422 479 l 1,41,-1
 493 436 l 1,42,-1
 582 254 l 1,37,-1
139 959 m 1,43,-1
 139 961 l 1,44,-1
 228 907 l 1,45,-1
 227 905 l 1,46,-1
 227 895 l 1,47,-1
 226 887 l 1,48,-1
 217 782 l 1,49,-1
 199 578 l 1,50,-1
 196 546 l 1,51,-1
 150 477 l 1,52,-1
 100 507 l 1,53,-1
 139 959 l 1,43,-1
EndSplineSet
Validated: 33
EndChar

StartChar: X
Encoding: 88 88 57
Width: 816
Flags: W
LayerCount: 2
Fore
SplineSet
234 746 m 1,0,-1
 246 887 l 1,1,-1
 272 887 l 1,2,-1
 360 707 l 1,3,-1
 394 521 l 1,4,-1
 323 564 l 1,5,-1
 234 746 l 1,0,-1
492 707 m 1,6,-1
 612 887 l 1,7,-1
 638 887 l 1,8,-1
 626 746 l 1,9,-1
 505 564 l 1,10,-1
 426 521 l 1,11,-1
 492 707 l 1,6,-1
324 293 m 1,12,-1
 204 113 l 1,13,-1
 178 113 l 1,14,-1
 190 254 l 1,15,-1
 311 436 l 1,16,-1
 390 479 l 1,17,-1
 324 293 l 1,12,-1
582 254 m 1,18,-1
 570 113 l 1,19,-1
 544 113 l 1,20,-1
 456 293 l 1,21,-1
 422 479 l 1,22,-1
 493 436 l 1,23,-1
 582 254 l 1,18,-1
EndSplineSet
Validated: 1
EndChar

StartChar: Y
Encoding: 89 89 58
Width: 816
Flags: W
LayerCount: 2
Fore
SplineSet
234 746 m 1,0,-1
 246 887 l 1,1,-1
 272 887 l 1,2,-1
 360 707 l 1,3,-1
 394 521 l 1,4,-1
 323 564 l 1,5,-1
 234 746 l 1,0,-1
492 707 m 1,6,-1
 612 887 l 1,7,-1
 638 887 l 1,8,-1
 626 746 l 1,9,-1
 505 564 l 1,10,-1
 426 521 l 1,11,-1
 492 707 l 1,6,-1
435 287 m 1,12,-1
 420 113 l 1,13,-1
 328 113 l 1,14,-1
 343 287 l 1,15,-1
 404 460 l 1,16,-1
 435 287 l 1,12,-1
EndSplineSet
Validated: 1
EndChar

StartChar: Z
Encoding: 90 90 59
Width: 816
Flags: W
LayerCount: 2
Fore
SplineSet
492 707 m 1,0,-1
 612 887 l 1,1,-1
 638 887 l 1,2,-1
 626 746 l 1,3,-1
 505 564 l 1,4,-1
 426 521 l 1,5,-1
 492 707 l 1,0,-1
269 907 m 1,6,-1
 147 981 l 1,7,8
 161 1000 161 1000 184 1000 c 2,9,-1
 720 1000 l 1,10,11
 720 1000 720 1000 722 1000 c 2,12,-1
 660 907 l 1,13,-1
 657 907 l 1,14,-1
 626 907 l 1,15,-1
 490 907 l 1,16,-1
 398 907 l 1,17,-1
 269 907 l 1,6,-1
547 93 m 1,18,-1
 669 19 l 1,19,20
 655 0 655 0 632 0 c 2,21,-1
 96 0 l 1,22,-1
 94 0 l 1,23,-1
 156 93 l 1,24,-1
 159 93 l 1,25,-1
 190 93 l 1,26,-1
 326 93 l 1,27,-1
 418 93 l 1,28,-1
 547 93 l 1,18,-1
324 293 m 1,29,-1
 204 113 l 1,30,-1
 178 113 l 1,31,-1
 190 254 l 1,32,-1
 311 436 l 1,33,-1
 390 479 l 1,34,-1
 324 293 l 1,29,-1
EndSplineSet
Validated: 1
EndChar

StartChar: backslash
Encoding: 92 92 60
Width: 816
Flags: W
LayerCount: 2
Fore
SplineSet
234 746 m 1,0,-1
 246 887 l 1,1,-1
 272 887 l 1,2,-1
 360 707 l 1,3,-1
 394 521 l 1,4,-1
 323 564 l 1,5,-1
 234 746 l 1,0,-1
582 254 m 1,6,-1
 570 113 l 1,7,-1
 544 113 l 1,8,-1
 456 293 l 1,9,-1
 422 479 l 1,10,-1
 493 436 l 1,11,-1
 582 254 l 1,6,-1
EndSplineSet
Validated: 1
EndChar

StartChar: asciicircum
Encoding: 94 94 61
Width: 816
Flags: W
LayerCount: 2
Fore
SplineSet
234 746 m 1,0,-1
 246 887 l 1,1,-1
 272 887 l 1,2,-1
 360 707 l 1,3,-1
 394 521 l 1,4,-1
 323 564 l 1,5,-1
 234 746 l 1,0,-1
139 959 m 1,6,7
 139 959 139 959 139 961 c 2,8,-1
 228 907 l 1,9,-1
 227 905 l 1,10,-1
 227 895 l 1,11,-1
 226 887 l 1,12,-1
 217 782 l 1,13,-1
 199 578 l 1,14,-1
 196 546 l 1,15,-1
 150 477 l 1,16,-1
 100 507 l 1,17,-1
 139 959 l 1,6,7
EndSplineSet
Validated: 1
EndChar

StartChar: underscore
Encoding: 95 95 62
Width: 816
Flags: W
LayerCount: 2
Fore
SplineSet
547 93 m 1,0,-1
 669 19 l 1,1,2
 655 0 655 0 632 0 c 2,3,-1
 96 0 l 1,4,5
 96 0 96 0 94 0 c 2,6,-1
 156 93 l 1,7,-1
 159 93 l 1,8,-1
 190 93 l 1,9,-1
 326 93 l 1,10,-1
 418 93 l 1,11,-1
 547 93 l 1,0,-1
EndSplineSet
Validated: 1
EndChar

StartChar: grave
Encoding: 96 96 63
Width: 816
Flags: W
LayerCount: 2
Fore
SplineSet
234 746 m 1,0,-1
 246 887 l 1,1,-1
 272 887 l 1,2,-1
 360 707 l 1,3,-1
 394 521 l 1,4,-1
 323 564 l 1,5,-1
 234 746 l 1,0,-1
EndSplineSet
Validated: 1
EndChar

StartChar: a
Encoding: 97 97 64
Width: 816
Flags: W
LayerCount: 2
Fore
SplineSet
387 500 m 1,0,-1
 303 454 l 1,1,-1
 208 454 l 1,2,-1
 188 454 l 1,3,-1
 166 467 l 1,4,-1
 219 546 l 1,5,-1
 311 546 l 1,6,-1
 387 500 l 1,0,-1
628 546 m 1,7,-1
 650 533 l 1,8,-1
 597 454 l 1,9,-1
 505 454 l 1,10,-1
 429 500 l 1,11,-1
 513 546 l 1,12,-1
 628 546 l 1,7,-1
666 523 m 1,13,-1
 716 493 l 1,14,-1
 677 41 l 1,15,-1
 677 39 l 1,16,-1
 588 93 l 1,17,-1
 589 95 l 1,18,-1
 589 103 l 1,19,-1
 590 113 l 1,20,-1
 599 218 l 1,21,-1
 620 454 l 1,22,-1
 666 523 l 1,13,-1
167 218 m 1,23,-1
 160 134 l 1,24,-1
 75 6 l 1,25,26
 57 18 57 18 59 41 c 2,27,-1
 98 483 l 1,28,-1
 186 430 l 1,29,-1
 167 218 l 1,23,-1
741 994 m 1,30,31
 759 982 759 982 757 959 c 2,32,-1
 718 517 l 1,33,-1
 630 570 l 1,34,-1
 633 607 l 1,35,-1
 649 782 l 1,36,-1
 656 866 l 1,37,-1
 741 994 l 1,30,31
269 907 m 1,38,-1
 147 981 l 1,39,40
 161 1000 161 1000 184 1000 c 2,41,-1
 720 1000 l 1,42,-1
 722 1000 l 1,43,-1
 660 907 l 1,44,-1
 657 907 l 1,45,-1
 626 907 l 1,46,-1
 490 907 l 1,47,-1
 398 907 l 1,48,-1
 269 907 l 1,38,-1
139 959 m 1,49,-1
 139 961 l 1,50,-1
 228 907 l 1,51,-1
 227 905 l 1,52,-1
 227 895 l 1,53,-1
 226 887 l 1,54,-1
 217 782 l 1,55,-1
 199 578 l 1,56,-1
 196 546 l 1,57,-1
 150 477 l 1,58,-1
 100 507 l 1,59,-1
 139 959 l 1,49,-1
EndSplineSet
Validated: 33
EndChar

StartChar: b
Encoding: 98 98 65
Width: 816
Flags: W
LayerCount: 2
Fore
SplineSet
381 713 m 1,0,-1
 396 887 l 1,1,-1
 488 887 l 1,2,-1
 473 713 l 1,3,-1
 412 540 l 1,4,-1
 381 713 l 1,0,-1
628 546 m 1,5,-1
 650 533 l 1,6,-1
 597 454 l 1,7,-1
 505 454 l 1,8,-1
 429 500 l 1,9,-1
 513 546 l 1,10,-1
 628 546 l 1,5,-1
666 523 m 1,11,-1
 716 493 l 1,12,-1
 677 41 l 1,13,14
 677 41 677 41 677 39 c 2,15,-1
 588 93 l 1,16,-1
 589 95 l 1,17,-1
 589 103 l 1,18,-1
 590 113 l 1,19,-1
 599 218 l 1,20,-1
 620 454 l 1,21,-1
 666 523 l 1,11,-1
435 287 m 1,22,-1
 420 113 l 1,23,-1
 328 113 l 1,24,-1
 343 287 l 1,25,-1
 404 460 l 1,26,-1
 435 287 l 1,22,-1
741 994 m 1,27,28
 759 982 759 982 757 959 c 2,29,-1
 718 517 l 1,30,-1
 630 570 l 1,31,-1
 633 607 l 1,32,-1
 649 782 l 1,33,-1
 656 866 l 1,34,-1
 741 994 l 1,27,28
269 907 m 1,35,-1
 147 981 l 1,36,37
 161 1000 161 1000 184 1000 c 2,38,-1
 720 1000 l 1,39,-1
 722 1000 l 1,40,-1
 660 907 l 1,41,-1
 657 907 l 1,42,-1
 626 907 l 1,43,-1
 490 907 l 1,44,-1
 398 907 l 1,45,-1
 269 907 l 1,35,-1
547 93 m 1,46,-1
 669 19 l 1,47,48
 655 0 655 0 632 0 c 2,49,-1
 96 0 l 1,50,-1
 94 0 l 1,51,-1
 156 93 l 1,52,-1
 159 93 l 1,53,-1
 190 93 l 1,54,-1
 326 93 l 1,55,-1
 418 93 l 1,56,-1
 547 93 l 1,46,-1
EndSplineSet
Validated: 33
EndChar

StartChar: c
Encoding: 99 99 66
Width: 816
Flags: W
LayerCount: 2
Fore
SplineSet
167 218 m 1,0,-1
 160 134 l 1,1,-1
 75 6 l 1,2,3
 57 18 57 18 59 41 c 2,4,-1
 98 483 l 1,5,-1
 186 430 l 1,6,-1
 167 218 l 1,0,-1
269 907 m 1,7,-1
 147 981 l 1,8,9
 161 1000 161 1000 184 1000 c 2,10,-1
 720 1000 l 1,11,12
 720 1000 720 1000 722 1000 c 2,13,-1
 660 907 l 1,14,-1
 657 907 l 1,15,-1
 626 907 l 1,16,-1
 490 907 l 1,17,-1
 398 907 l 1,18,-1
 269 907 l 1,7,-1
547 93 m 1,19,-1
 669 19 l 1,20,21
 655 0 655 0 632 0 c 2,22,-1
 96 0 l 1,23,-1
 94 0 l 1,24,-1
 156 93 l 1,25,-1
 159 93 l 1,26,-1
 190 93 l 1,27,-1
 326 93 l 1,28,-1
 418 93 l 1,29,-1
 547 93 l 1,19,-1
139 959 m 1,30,-1
 139 961 l 1,31,-1
 228 907 l 1,32,-1
 227 905 l 1,33,-1
 227 895 l 1,34,-1
 226 887 l 1,35,-1
 217 782 l 1,36,-1
 199 578 l 1,37,-1
 196 546 l 1,38,-1
 150 477 l 1,39,-1
 100 507 l 1,40,-1
 139 959 l 1,30,-1
EndSplineSet
Validated: 33
EndChar

StartChar: d
Encoding: 100 100 67
Width: 816
Flags: W
LayerCount: 2
Fore
SplineSet
381 713 m 1,0,-1
 396 887 l 1,1,-1
 488 887 l 1,2,-1
 473 713 l 1,3,-1
 412 540 l 1,4,-1
 381 713 l 1,0,-1
666 523 m 1,5,-1
 716 493 l 1,6,-1
 677 41 l 1,7,8
 677 41 677 41 677 39 c 2,9,-1
 588 93 l 1,10,-1
 589 95 l 1,11,-1
 589 103 l 1,12,-1
 590 113 l 1,13,-1
 599 218 l 1,14,-1
 620 454 l 1,15,-1
 666 523 l 1,5,-1
435 287 m 1,16,-1
 420 113 l 1,17,-1
 328 113 l 1,18,-1
 343 287 l 1,19,-1
 404 460 l 1,20,-1
 435 287 l 1,16,-1
741 994 m 1,21,22
 759 982 759 982 757 959 c 2,23,-1
 718 517 l 1,24,-1
 630 570 l 1,25,-1
 633 607 l 1,26,-1
 649 782 l 1,27,-1
 656 866 l 1,28,-1
 741 994 l 1,21,22
269 907 m 1,29,-1
 147 981 l 1,30,31
 161 1000 161 1000 184 1000 c 2,32,-1
 720 1000 l 1,33,-1
 722 1000 l 1,34,-1
 660 907 l 1,35,-1
 657 907 l 1,36,-1
 626 907 l 1,37,-1
 490 907 l 1,38,-1
 398 907 l 1,39,-1
 269 907 l 1,29,-1
547 93 m 1,40,-1
 669 19 l 1,41,42
 655 0 655 0 632 0 c 2,43,-1
 96 0 l 1,44,-1
 94 0 l 1,45,-1
 156 93 l 1,46,-1
 159 93 l 1,47,-1
 190 93 l 1,48,-1
 326 93 l 1,49,-1
 418 93 l 1,50,-1
 547 93 l 1,40,-1
EndSplineSet
Validated: 33
EndChar

StartChar: e
Encoding: 101 101 68
Width: 816
Flags: W
LayerCount: 2
Fore
SplineSet
387 500 m 1,0,-1
 303 454 l 1,1,-1
 208 454 l 1,2,-1
 188 454 l 1,3,-1
 166 467 l 1,4,-1
 219 546 l 1,5,-1
 311 546 l 1,6,-1
 387 500 l 1,0,-1
628 546 m 1,7,-1
 650 533 l 1,8,-1
 597 454 l 1,9,-1
 505 454 l 1,10,-1
 429 500 l 1,11,-1
 513 546 l 1,12,-1
 628 546 l 1,7,-1
167 218 m 1,13,-1
 160 134 l 1,14,-1
 75 6 l 1,15,16
 57 18 57 18 59 41 c 2,17,-1
 98 483 l 1,18,-1
 186 430 l 1,19,-1
 167 218 l 1,13,-1
269 907 m 1,20,-1
 147 981 l 1,21,22
 161 1000 161 1000 184 1000 c 2,23,-1
 720 1000 l 1,24,-1
 722 1000 l 1,25,-1
 660 907 l 1,26,-1
 657 907 l 1,27,-1
 626 907 l 1,28,-1
 490 907 l 1,29,-1
 398 907 l 1,30,-1
 269 907 l 1,20,-1
547 93 m 1,31,-1
 669 19 l 1,32,33
 655 0 655 0 632 0 c 2,34,-1
 96 0 l 1,35,-1
 94 0 l 1,36,-1
 156 93 l 1,37,-1
 159 93 l 1,38,-1
 190 93 l 1,39,-1
 326 93 l 1,40,-1
 418 93 l 1,41,-1
 547 93 l 1,31,-1
139 959 m 1,42,-1
 139 961 l 1,43,-1
 228 907 l 1,44,-1
 227 905 l 1,45,-1
 227 895 l 1,46,-1
 226 887 l 1,47,-1
 217 782 l 1,48,-1
 199 578 l 1,49,-1
 196 546 l 1,50,-1
 150 477 l 1,51,-1
 100 507 l 1,52,-1
 139 959 l 1,42,-1
EndSplineSet
Validated: 33
EndChar

StartChar: f
Encoding: 102 102 69
Width: 816
Flags: W
LayerCount: 2
Fore
SplineSet
387 500 m 1,0,-1
 303 454 l 1,1,-1
 208 454 l 1,2,-1
 188 454 l 1,3,-1
 166 467 l 1,4,-1
 219 546 l 1,5,-1
 311 546 l 1,6,-1
 387 500 l 1,0,-1
628 546 m 1,7,-1
 650 533 l 1,8,-1
 597 454 l 1,9,-1
 505 454 l 1,10,-1
 429 500 l 1,11,-1
 513 546 l 1,12,-1
 628 546 l 1,7,-1
167 218 m 1,13,-1
 160 134 l 1,14,-1
 75 6 l 1,15,16
 57 18 57 18 59 41 c 2,17,-1
 98 483 l 1,18,-1
 186 430 l 1,19,-1
 167 218 l 1,13,-1
269 907 m 1,20,-1
 147 981 l 1,21,22
 161 1000 161 1000 184 1000 c 2,23,-1
 720 1000 l 1,24,-1
 722 1000 l 1,25,-1
 660 907 l 1,26,-1
 657 907 l 1,27,-1
 626 907 l 1,28,-1
 490 907 l 1,29,-1
 398 907 l 1,30,-1
 269 907 l 1,20,-1
139 959 m 1,31,-1
 139 961 l 1,32,-1
 228 907 l 1,33,-1
 227 905 l 1,34,-1
 227 895 l 1,35,-1
 226 887 l 1,36,-1
 217 782 l 1,37,-1
 199 578 l 1,38,-1
 196 546 l 1,39,-1
 150 477 l 1,40,-1
 100 507 l 1,41,-1
 139 959 l 1,31,-1
EndSplineSet
Validated: 33
EndChar

StartChar: g
Encoding: 103 103 70
Width: 816
Flags: W
LayerCount: 2
Fore
SplineSet
628 546 m 1,0,-1
 650 533 l 1,1,-1
 597 454 l 1,2,-1
 505 454 l 1,3,-1
 429 500 l 1,4,-1
 513 546 l 1,5,-1
 628 546 l 1,0,-1
666 523 m 1,6,-1
 716 493 l 1,7,-1
 677 41 l 1,8,9
 677 41 677 41 677 39 c 2,10,-1
 588 93 l 1,11,-1
 589 95 l 1,12,-1
 589 103 l 1,13,-1
 590 113 l 1,14,-1
 599 218 l 1,15,-1
 620 454 l 1,16,-1
 666 523 l 1,6,-1
167 218 m 1,17,-1
 160 134 l 1,18,-1
 75 6 l 1,19,20
 57 18 57 18 59 41 c 2,21,-1
 98 483 l 1,22,-1
 186 430 l 1,23,-1
 167 218 l 1,17,-1
269 907 m 1,24,-1
 147 981 l 1,25,26
 161 1000 161 1000 184 1000 c 2,27,-1
 720 1000 l 1,28,-1
 722 1000 l 1,29,-1
 660 907 l 1,30,-1
 657 907 l 1,31,-1
 626 907 l 1,32,-1
 490 907 l 1,33,-1
 398 907 l 1,34,-1
 269 907 l 1,24,-1
547 93 m 1,35,-1
 669 19 l 1,36,37
 655 0 655 0 632 0 c 2,38,-1
 96 0 l 1,39,-1
 94 0 l 1,40,-1
 156 93 l 1,41,-1
 159 93 l 1,42,-1
 190 93 l 1,43,-1
 326 93 l 1,44,-1
 418 93 l 1,45,-1
 547 93 l 1,35,-1
139 959 m 1,46,-1
 139 961 l 1,47,-1
 228 907 l 1,48,-1
 227 905 l 1,49,-1
 227 895 l 1,50,-1
 226 887 l 1,51,-1
 217 782 l 1,52,-1
 199 578 l 1,53,-1
 196 546 l 1,54,-1
 150 477 l 1,55,-1
 100 507 l 1,56,-1
 139 959 l 1,46,-1
EndSplineSet
Validated: 33
EndChar

StartChar: h
Encoding: 104 104 71
Width: 816
Flags: W
LayerCount: 2
Fore
SplineSet
387 500 m 1,0,-1
 303 454 l 1,1,-1
 208 454 l 1,2,-1
 188 454 l 1,3,-1
 166 467 l 1,4,-1
 219 546 l 1,5,-1
 311 546 l 1,6,-1
 387 500 l 1,0,-1
628 546 m 1,7,-1
 650 533 l 1,8,-1
 597 454 l 1,9,-1
 505 454 l 1,10,-1
 429 500 l 1,11,-1
 513 546 l 1,12,-1
 628 546 l 1,7,-1
666 523 m 1,13,-1
 716 493 l 1,14,-1
 677 41 l 1,15,-1
 677 39 l 1,16,-1
 588 93 l 1,17,-1
 589 95 l 1,18,-1
 589 103 l 1,19,-1
 590 113 l 1,20,-1
 599 218 l 1,21,-1
 620 454 l 1,22,-1
 666 523 l 1,13,-1
167 218 m 1,23,-1
 160 134 l 1,24,-1
 75 6 l 1,25,26
 57 18 57 18 59 41 c 2,27,-1
 98 483 l 1,28,-1
 186 430 l 1,29,-1
 167 218 l 1,23,-1
741 994 m 1,30,31
 759 982 759 982 757 959 c 2,32,-1
 718 517 l 1,33,-1
 630 570 l 1,34,-1
 633 607 l 1,35,-1
 649 782 l 1,36,-1
 656 866 l 1,37,-1
 741 994 l 1,30,31
139 959 m 1,38,-1
 139 961 l 1,39,-1
 228 907 l 1,40,-1
 227 905 l 1,41,-1
 227 895 l 1,42,-1
 226 887 l 1,43,-1
 217 782 l 1,44,-1
 199 578 l 1,45,-1
 196 546 l 1,46,-1
 150 477 l 1,47,-1
 100 507 l 1,48,-1
 139 959 l 1,38,-1
EndSplineSet
Validated: 33
EndChar

StartChar: i
Encoding: 105 105 72
Width: 816
Flags: W
LayerCount: 2
Fore
SplineSet
381 713 m 1,0,-1
 396 887 l 1,1,-1
 488 887 l 1,2,-1
 473 713 l 1,3,-1
 412 540 l 1,4,-1
 381 713 l 1,0,-1
435 287 m 1,5,-1
 420 113 l 1,6,-1
 328 113 l 1,7,-1
 343 287 l 1,8,-1
 404 460 l 1,9,-1
 435 287 l 1,5,-1
269 907 m 1,10,-1
 147 981 l 1,11,12
 161 1000 161 1000 184 1000 c 2,13,-1
 720 1000 l 1,14,15
 720 1000 720 1000 722 1000 c 2,16,-1
 660 907 l 1,17,-1
 657 907 l 1,18,-1
 626 907 l 1,19,-1
 490 907 l 1,20,-1
 398 907 l 1,21,-1
 269 907 l 1,10,-1
547 93 m 1,22,-1
 669 19 l 1,23,24
 655 0 655 0 632 0 c 2,25,-1
 96 0 l 1,26,-1
 94 0 l 1,27,-1
 156 93 l 1,28,-1
 159 93 l 1,29,-1
 190 93 l 1,30,-1
 326 93 l 1,31,-1
 418 93 l 1,32,-1
 547 93 l 1,22,-1
EndSplineSet
Validated: 1
EndChar

StartChar: j
Encoding: 106 106 73
Width: 816
Flags: W
LayerCount: 2
Fore
SplineSet
666 523 m 1,0,-1
 716 493 l 1,1,-1
 677 41 l 1,2,3
 677 41 677 41 677 39 c 2,4,-1
 588 93 l 1,5,-1
 589 95 l 1,6,-1
 589 103 l 1,7,-1
 590 113 l 1,8,-1
 599 218 l 1,9,-1
 620 454 l 1,10,-1
 666 523 l 1,0,-1
167 218 m 1,11,-1
 160 134 l 1,12,-1
 75 6 l 1,13,14
 57 18 57 18 59 41 c 2,15,-1
 98 483 l 1,16,-1
 186 430 l 1,17,-1
 167 218 l 1,11,-1
741 994 m 1,18,19
 759 982 759 982 757 959 c 2,20,-1
 718 517 l 1,21,-1
 630 570 l 1,22,-1
 633 607 l 1,23,-1
 649 782 l 1,24,-1
 656 866 l 1,25,-1
 741 994 l 1,18,19
547 93 m 1,26,-1
 669 19 l 1,27,28
 655 0 655 0 632 0 c 2,29,-1
 96 0 l 1,30,-1
 94 0 l 1,31,-1
 156 93 l 1,32,-1
 159 93 l 1,33,-1
 190 93 l 1,34,-1
 326 93 l 1,35,-1
 418 93 l 1,36,-1
 547 93 l 1,26,-1
EndSplineSet
Validated: 33
EndChar

StartChar: k
Encoding: 107 107 74
Width: 816
Flags: W
LayerCount: 2
Fore
SplineSet
387 500 m 1,0,-1
 303 454 l 1,1,-1
 208 454 l 1,2,-1
 188 454 l 1,3,-1
 166 467 l 1,4,-1
 219 546 l 1,5,-1
 311 546 l 1,6,-1
 387 500 l 1,0,-1
167 218 m 1,7,-1
 160 134 l 1,8,-1
 75 6 l 1,9,10
 57 18 57 18 59 41 c 2,11,-1
 98 483 l 1,12,-1
 186 430 l 1,13,-1
 167 218 l 1,7,-1
492 707 m 1,14,-1
 612 887 l 1,15,-1
 638 887 l 1,16,-1
 626 746 l 1,17,-1
 505 564 l 1,18,-1
 426 521 l 1,19,-1
 492 707 l 1,14,-1
582 254 m 1,20,-1
 570 113 l 1,21,-1
 544 113 l 1,22,-1
 456 293 l 1,23,-1
 422 479 l 1,24,-1
 493 436 l 1,25,-1
 582 254 l 1,20,-1
139 959 m 1,26,-1
 139 961 l 1,27,-1
 228 907 l 1,28,-1
 227 905 l 1,29,-1
 227 895 l 1,30,-1
 226 887 l 1,31,-1
 217 782 l 1,32,-1
 199 578 l 1,33,-1
 196 546 l 1,34,-1
 150 477 l 1,35,-1
 100 507 l 1,36,-1
 139 959 l 1,26,-1
EndSplineSet
Validated: 33
EndChar

StartChar: l
Encoding: 108 108 75
Width: 816
Flags: W
LayerCount: 2
Fore
SplineSet
167 218 m 1,0,-1
 160 134 l 1,1,-1
 75 6 l 1,2,3
 57 18 57 18 59 41 c 2,4,-1
 98 483 l 1,5,-1
 186 430 l 1,6,-1
 167 218 l 1,0,-1
547 93 m 1,7,-1
 669 19 l 1,8,9
 655 0 655 0 632 0 c 2,10,-1
 96 0 l 1,11,12
 96 0 96 0 94 0 c 2,13,-1
 156 93 l 1,14,-1
 159 93 l 1,15,-1
 190 93 l 1,16,-1
 326 93 l 1,17,-1
 418 93 l 1,18,-1
 547 93 l 1,7,-1
139 959 m 1,19,20
 139 959 139 959 139 961 c 2,21,-1
 228 907 l 1,22,-1
 227 905 l 1,23,-1
 227 895 l 1,24,-1
 226 887 l 1,25,-1
 217 782 l 1,26,-1
 199 578 l 1,27,-1
 196 546 l 1,28,-1
 150 477 l 1,29,-1
 100 507 l 1,30,-1
 139 959 l 1,19,20
EndSplineSet
Validated: 33
EndChar

StartChar: m
Encoding: 109 109 76
Width: 816
Flags: W
LayerCount: 2
Fore
SplineSet
234 746 m 1,0,-1
 246 887 l 1,1,-1
 272 887 l 1,2,-1
 360 707 l 1,3,-1
 394 521 l 1,4,-1
 323 564 l 1,5,-1
 234 746 l 1,0,-1
666 523 m 1,6,-1
 716 493 l 1,7,-1
 677 41 l 1,8,9
 677 41 677 41 677 39 c 2,10,-1
 588 93 l 1,11,-1
 589 95 l 1,12,-1
 589 103 l 1,13,-1
 590 113 l 1,14,-1
 599 218 l 1,15,-1
 620 454 l 1,16,-1
 666 523 l 1,6,-1
167 218 m 1,17,-1
 160 134 l 1,18,-1
 75 6 l 1,19,20
 57 18 57 18 59 41 c 2,21,-1
 98 483 l 1,22,-1
 186 430 l 1,23,-1
 167 218 l 1,17,-1
492 707 m 1,24,-1
 612 887 l 1,25,-1
 638 887 l 1,26,-1
 626 746 l 1,27,-1
 505 564 l 1,28,-1
 426 521 l 1,29,-1
 492 707 l 1,24,-1
435 287 m 1,30,-1
 420 113 l 1,31,-1
 328 113 l 1,32,-1
 343 287 l 1,33,-1
 404 460 l 1,34,-1
 435 287 l 1,30,-1
741 994 m 1,35,36
 759 982 759 982 757 959 c 2,37,-1
 718 517 l 1,38,-1
 630 570 l 1,39,-1
 633 607 l 1,40,-1
 649 782 l 1,41,-1
 656 866 l 1,42,-1
 741 994 l 1,35,36
139 959 m 1,43,-1
 139 961 l 1,44,-1
 228 907 l 1,45,-1
 227 905 l 1,46,-1
 227 895 l 1,47,-1
 226 887 l 1,48,-1
 217 782 l 1,49,-1
 199 578 l 1,50,-1
 196 546 l 1,51,-1
 150 477 l 1,52,-1
 100 507 l 1,53,-1
 139 959 l 1,43,-1
EndSplineSet
Validated: 33
EndChar

StartChar: n
Encoding: 110 110 77
Width: 816
Flags: W
LayerCount: 2
Fore
SplineSet
234 746 m 1,0,-1
 246 887 l 1,1,-1
 272 887 l 1,2,-1
 360 707 l 1,3,-1
 394 521 l 1,4,-1
 323 564 l 1,5,-1
 234 746 l 1,0,-1
666 523 m 1,6,-1
 716 493 l 1,7,-1
 677 41 l 1,8,9
 677 41 677 41 677 39 c 2,10,-1
 588 93 l 1,11,-1
 589 95 l 1,12,-1
 589 103 l 1,13,-1
 590 113 l 1,14,-1
 599 218 l 1,15,-1
 620 454 l 1,16,-1
 666 523 l 1,6,-1
167 218 m 1,17,-1
 160 134 l 1,18,-1
 75 6 l 1,19,20
 57 18 57 18 59 41 c 2,21,-1
 98 483 l 1,22,-1
 186 430 l 1,23,-1
 167 218 l 1,17,-1
741 994 m 1,24,25
 759 982 759 982 757 959 c 2,26,-1
 718 517 l 1,27,-1
 630 570 l 1,28,-1
 633 607 l 1,29,-1
 649 782 l 1,30,-1
 656 866 l 1,31,-1
 741 994 l 1,24,25
582 254 m 1,32,-1
 570 113 l 1,33,-1
 544 113 l 1,34,-1
 456 293 l 1,35,-1
 422 479 l 1,36,-1
 493 436 l 1,37,-1
 582 254 l 1,32,-1
139 959 m 1,38,-1
 139 961 l 1,39,-1
 228 907 l 1,40,-1
 227 905 l 1,41,-1
 227 895 l 1,42,-1
 226 887 l 1,43,-1
 217 782 l 1,44,-1
 199 578 l 1,45,-1
 196 546 l 1,46,-1
 150 477 l 1,47,-1
 100 507 l 1,48,-1
 139 959 l 1,38,-1
EndSplineSet
Validated: 33
EndChar

StartChar: o
Encoding: 111 111 78
Width: 816
Flags: W
LayerCount: 2
Fore
SplineSet
666 523 m 1,0,-1
 716 493 l 1,1,-1
 677 41 l 1,2,3
 677 41 677 41 677 39 c 2,4,-1
 588 93 l 1,5,-1
 589 95 l 1,6,-1
 589 103 l 1,7,-1
 590 113 l 1,8,-1
 599 218 l 1,9,-1
 620 454 l 1,10,-1
 666 523 l 1,0,-1
167 218 m 1,11,-1
 160 134 l 1,12,-1
 75 6 l 1,13,14
 57 18 57 18 59 41 c 2,15,-1
 98 483 l 1,16,-1
 186 430 l 1,17,-1
 167 218 l 1,11,-1
741 994 m 1,18,19
 759 982 759 982 757 959 c 2,20,-1
 718 517 l 1,21,-1
 630 570 l 1,22,-1
 633 607 l 1,23,-1
 649 782 l 1,24,-1
 656 866 l 1,25,-1
 741 994 l 1,18,19
269 907 m 1,26,-1
 147 981 l 1,27,28
 161 1000 161 1000 184 1000 c 2,29,-1
 720 1000 l 1,30,-1
 722 1000 l 1,31,-1
 660 907 l 1,32,-1
 657 907 l 1,33,-1
 626 907 l 1,34,-1
 490 907 l 1,35,-1
 398 907 l 1,36,-1
 269 907 l 1,26,-1
547 93 m 1,37,-1
 669 19 l 1,38,39
 655 0 655 0 632 0 c 2,40,-1
 96 0 l 1,41,-1
 94 0 l 1,42,-1
 156 93 l 1,43,-1
 159 93 l 1,44,-1
 190 93 l 1,45,-1
 326 93 l 1,46,-1
 418 93 l 1,47,-1
 547 93 l 1,37,-1
139 959 m 1,48,-1
 139 961 l 1,49,-1
 228 907 l 1,50,-1
 227 905 l 1,51,-1
 227 895 l 1,52,-1
 226 887 l 1,53,-1
 217 782 l 1,54,-1
 199 578 l 1,55,-1
 196 546 l 1,56,-1
 150 477 l 1,57,-1
 100 507 l 1,58,-1
 139 959 l 1,48,-1
EndSplineSet
Validated: 33
EndChar

StartChar: p
Encoding: 112 112 79
Width: 816
Flags: W
LayerCount: 2
Fore
SplineSet
387 500 m 1,0,-1
 303 454 l 1,1,-1
 208 454 l 1,2,-1
 188 454 l 1,3,-1
 166 467 l 1,4,-1
 219 546 l 1,5,-1
 311 546 l 1,6,-1
 387 500 l 1,0,-1
628 546 m 1,7,-1
 650 533 l 1,8,-1
 597 454 l 1,9,-1
 505 454 l 1,10,-1
 429 500 l 1,11,-1
 513 546 l 1,12,-1
 628 546 l 1,7,-1
167 218 m 1,13,-1
 160 134 l 1,14,-1
 75 6 l 1,15,16
 57 18 57 18 59 41 c 2,17,-1
 98 483 l 1,18,-1
 186 430 l 1,19,-1
 167 218 l 1,13,-1
741 994 m 1,20,21
 759 982 759 982 757 959 c 2,22,-1
 718 517 l 1,23,-1
 630 570 l 1,24,-1
 633 607 l 1,25,-1
 649 782 l 1,26,-1
 656 866 l 1,27,-1
 741 994 l 1,20,21
269 907 m 1,28,-1
 147 981 l 1,29,30
 161 1000 161 1000 184 1000 c 2,31,-1
 720 1000 l 1,32,-1
 722 1000 l 1,33,-1
 660 907 l 1,34,-1
 657 907 l 1,35,-1
 626 907 l 1,36,-1
 490 907 l 1,37,-1
 398 907 l 1,38,-1
 269 907 l 1,28,-1
139 959 m 1,39,-1
 139 961 l 1,40,-1
 228 907 l 1,41,-1
 227 905 l 1,42,-1
 227 895 l 1,43,-1
 226 887 l 1,44,-1
 217 782 l 1,45,-1
 199 578 l 1,46,-1
 196 546 l 1,47,-1
 150 477 l 1,48,-1
 100 507 l 1,49,-1
 139 959 l 1,39,-1
EndSplineSet
Validated: 33
EndChar

StartChar: q
Encoding: 113 113 80
Width: 816
Flags: W
LayerCount: 2
Fore
SplineSet
666 523 m 1,0,-1
 716 493 l 1,1,-1
 677 41 l 1,2,3
 677 41 677 41 677 39 c 2,4,-1
 588 93 l 1,5,-1
 589 95 l 1,6,-1
 589 103 l 1,7,-1
 590 113 l 1,8,-1
 599 218 l 1,9,-1
 620 454 l 1,10,-1
 666 523 l 1,0,-1
167 218 m 1,11,-1
 160 134 l 1,12,-1
 75 6 l 1,13,14
 57 18 57 18 59 41 c 2,15,-1
 98 483 l 1,16,-1
 186 430 l 1,17,-1
 167 218 l 1,11,-1
741 994 m 1,18,19
 759 982 759 982 757 959 c 2,20,-1
 718 517 l 1,21,-1
 630 570 l 1,22,-1
 633 607 l 1,23,-1
 649 782 l 1,24,-1
 656 866 l 1,25,-1
 741 994 l 1,18,19
269 907 m 1,26,-1
 147 981 l 1,27,28
 161 1000 161 1000 184 1000 c 2,29,-1
 720 1000 l 1,30,-1
 722 1000 l 1,31,-1
 660 907 l 1,32,-1
 657 907 l 1,33,-1
 626 907 l 1,34,-1
 490 907 l 1,35,-1
 398 907 l 1,36,-1
 269 907 l 1,26,-1
547 93 m 1,37,-1
 669 19 l 1,38,39
 655 0 655 0 632 0 c 2,40,-1
 96 0 l 1,41,-1
 94 0 l 1,42,-1
 156 93 l 1,43,-1
 159 93 l 1,44,-1
 190 93 l 1,45,-1
 326 93 l 1,46,-1
 418 93 l 1,47,-1
 547 93 l 1,37,-1
582 254 m 1,48,-1
 570 113 l 1,49,-1
 544 113 l 1,50,-1
 456 293 l 1,51,-1
 422 479 l 1,52,-1
 493 436 l 1,53,-1
 582 254 l 1,48,-1
139 959 m 1,54,-1
 139 961 l 1,55,-1
 228 907 l 1,56,-1
 227 905 l 1,57,-1
 227 895 l 1,58,-1
 226 887 l 1,59,-1
 217 782 l 1,60,-1
 199 578 l 1,61,-1
 196 546 l 1,62,-1
 150 477 l 1,63,-1
 100 507 l 1,64,-1
 139 959 l 1,54,-1
EndSplineSet
Validated: 33
EndChar

StartChar: r
Encoding: 114 114 81
Width: 816
Flags: W
LayerCount: 2
Fore
SplineSet
387 500 m 1,0,-1
 303 454 l 1,1,-1
 208 454 l 1,2,-1
 188 454 l 1,3,-1
 166 467 l 1,4,-1
 219 546 l 1,5,-1
 311 546 l 1,6,-1
 387 500 l 1,0,-1
628 546 m 1,7,-1
 650 533 l 1,8,-1
 597 454 l 1,9,-1
 505 454 l 1,10,-1
 429 500 l 1,11,-1
 513 546 l 1,12,-1
 628 546 l 1,7,-1
167 218 m 1,13,-1
 160 134 l 1,14,-1
 75 6 l 1,15,16
 57 18 57 18 59 41 c 2,17,-1
 98 483 l 1,18,-1
 186 430 l 1,19,-1
 167 218 l 1,13,-1
741 994 m 1,20,21
 759 982 759 982 757 959 c 2,22,-1
 718 517 l 1,23,-1
 630 570 l 1,24,-1
 633 607 l 1,25,-1
 649 782 l 1,26,-1
 656 866 l 1,27,-1
 741 994 l 1,20,21
269 907 m 1,28,-1
 147 981 l 1,29,30
 161 1000 161 1000 184 1000 c 2,31,-1
 720 1000 l 1,32,-1
 722 1000 l 1,33,-1
 660 907 l 1,34,-1
 657 907 l 1,35,-1
 626 907 l 1,36,-1
 490 907 l 1,37,-1
 398 907 l 1,38,-1
 269 907 l 1,28,-1
582 254 m 1,39,-1
 570 113 l 1,40,-1
 544 113 l 1,41,-1
 456 293 l 1,42,-1
 422 479 l 1,43,-1
 493 436 l 1,44,-1
 582 254 l 1,39,-1
139 959 m 1,45,-1
 139 961 l 1,46,-1
 228 907 l 1,47,-1
 227 905 l 1,48,-1
 227 895 l 1,49,-1
 226 887 l 1,50,-1
 217 782 l 1,51,-1
 199 578 l 1,52,-1
 196 546 l 1,53,-1
 150 477 l 1,54,-1
 100 507 l 1,55,-1
 139 959 l 1,45,-1
EndSplineSet
Validated: 33
EndChar

StartChar: s
Encoding: 115 115 82
Width: 816
Flags: W
LayerCount: 2
Fore
SplineSet
387 500 m 1,0,-1
 303 454 l 1,1,-1
 208 454 l 1,2,-1
 188 454 l 1,3,-1
 166 467 l 1,4,-1
 219 546 l 1,5,-1
 311 546 l 1,6,-1
 387 500 l 1,0,-1
628 546 m 1,7,-1
 650 533 l 1,8,-1
 597 454 l 1,9,-1
 505 454 l 1,10,-1
 429 500 l 1,11,-1
 513 546 l 1,12,-1
 628 546 l 1,7,-1
234 746 m 1,13,-1
 246 887 l 1,14,-1
 272 887 l 1,15,-1
 360 707 l 1,16,-1
 394 521 l 1,17,-1
 323 564 l 1,18,-1
 234 746 l 1,13,-1
666 523 m 1,19,-1
 716 493 l 1,20,-1
 677 41 l 1,21,-1
 677 39 l 1,22,-1
 588 93 l 1,23,-1
 589 95 l 1,24,-1
 589 103 l 1,25,-1
 590 113 l 1,26,-1
 599 218 l 1,27,-1
 620 454 l 1,28,-1
 666 523 l 1,19,-1
269 907 m 1,29,-1
 147 981 l 1,30,31
 161 1000 161 1000 184 1000 c 2,32,-1
 720 1000 l 1,33,-1
 722 1000 l 1,34,-1
 660 907 l 1,35,-1
 657 907 l 1,36,-1
 626 907 l 1,37,-1
 490 907 l 1,38,-1
 398 907 l 1,39,-1
 269 907 l 1,29,-1
547 93 m 1,40,-1
 669 19 l 1,41,42
 655 0 655 0 632 0 c 2,43,-1
 96 0 l 1,44,-1
 94 0 l 1,45,-1
 156 93 l 1,46,-1
 159 93 l 1,47,-1
 190 93 l 1,48,-1
 326 93 l 1,49,-1
 418 93 l 1,50,-1
 547 93 l 1,40,-1
582 254 m 1,51,-1
 570 113 l 1,52,-1
 544 113 l 1,53,-1
 456 293 l 1,54,-1
 422 479 l 1,55,-1
 493 436 l 1,56,-1
 582 254 l 1,51,-1
139 959 m 1,57,-1
 139 961 l 1,58,-1
 228 907 l 1,59,-1
 227 905 l 1,60,-1
 227 895 l 1,61,-1
 226 887 l 1,62,-1
 217 782 l 1,63,-1
 199 578 l 1,64,-1
 196 546 l 1,65,-1
 150 477 l 1,66,-1
 100 507 l 1,67,-1
 139 959 l 1,57,-1
EndSplineSet
Validated: 1
EndChar

StartChar: t
Encoding: 116 116 83
Width: 816
Flags: W
LayerCount: 2
Fore
SplineSet
381 713 m 1,0,-1
 396 887 l 1,1,-1
 488 887 l 1,2,-1
 473 713 l 1,3,-1
 412 540 l 1,4,-1
 381 713 l 1,0,-1
435 287 m 1,5,-1
 420 113 l 1,6,-1
 328 113 l 1,7,-1
 343 287 l 1,8,-1
 404 460 l 1,9,-1
 435 287 l 1,5,-1
269 907 m 1,10,-1
 147 981 l 1,11,12
 161 1000 161 1000 184 1000 c 2,13,-1
 720 1000 l 1,14,15
 720 1000 720 1000 722 1000 c 2,16,-1
 660 907 l 1,17,-1
 657 907 l 1,18,-1
 626 907 l 1,19,-1
 490 907 l 1,20,-1
 398 907 l 1,21,-1
 269 907 l 1,10,-1
EndSplineSet
Validated: 1
EndChar

StartChar: u
Encoding: 117 117 84
Width: 816
Flags: W
LayerCount: 2
Fore
SplineSet
666 523 m 1,0,-1
 716 493 l 1,1,-1
 677 41 l 1,2,3
 677 41 677 41 677 39 c 2,4,-1
 588 93 l 1,5,-1
 589 95 l 1,6,-1
 589 103 l 1,7,-1
 590 113 l 1,8,-1
 599 218 l 1,9,-1
 620 454 l 1,10,-1
 666 523 l 1,0,-1
167 218 m 1,11,-1
 160 134 l 1,12,-1
 75 6 l 1,13,14
 57 18 57 18 59 41 c 2,15,-1
 98 483 l 1,16,-1
 186 430 l 1,17,-1
 167 218 l 1,11,-1
741 994 m 1,18,19
 759 982 759 982 757 959 c 2,20,-1
 718 517 l 1,21,-1
 630 570 l 1,22,-1
 633 607 l 1,23,-1
 649 782 l 1,24,-1
 656 866 l 1,25,-1
 741 994 l 1,18,19
547 93 m 1,26,-1
 669 19 l 1,27,28
 655 0 655 0 632 0 c 2,29,-1
 96 0 l 1,30,-1
 94 0 l 1,31,-1
 156 93 l 1,32,-1
 159 93 l 1,33,-1
 190 93 l 1,34,-1
 326 93 l 1,35,-1
 418 93 l 1,36,-1
 547 93 l 1,26,-1
139 959 m 1,37,-1
 139 961 l 1,38,-1
 228 907 l 1,39,-1
 227 905 l 1,40,-1
 227 895 l 1,41,-1
 226 887 l 1,42,-1
 217 782 l 1,43,-1
 199 578 l 1,44,-1
 196 546 l 1,45,-1
 150 477 l 1,46,-1
 100 507 l 1,47,-1
 139 959 l 1,37,-1
EndSplineSet
Validated: 33
EndChar

StartChar: v
Encoding: 118 118 85
Width: 816
Flags: W
LayerCount: 2
Fore
SplineSet
167 218 m 1,0,-1
 160 134 l 1,1,-1
 75 6 l 1,2,3
 57 18 57 18 59 41 c 2,4,-1
 98 483 l 1,5,-1
 186 430 l 1,6,-1
 167 218 l 1,0,-1
492 707 m 1,7,-1
 612 887 l 1,8,-1
 638 887 l 1,9,-1
 626 746 l 1,10,-1
 505 564 l 1,11,-1
 426 521 l 1,12,-1
 492 707 l 1,7,-1
324 293 m 1,13,-1
 204 113 l 1,14,-1
 178 113 l 1,15,-1
 190 254 l 1,16,-1
 311 436 l 1,17,-1
 390 479 l 1,18,-1
 324 293 l 1,13,-1
139 959 m 1,19,20
 139 959 139 959 139 961 c 2,21,-1
 228 907 l 1,22,-1
 227 905 l 1,23,-1
 227 895 l 1,24,-1
 226 887 l 1,25,-1
 217 782 l 1,26,-1
 199 578 l 1,27,-1
 196 546 l 1,28,-1
 150 477 l 1,29,-1
 100 507 l 1,30,-1
 139 959 l 1,19,20
EndSplineSet
Validated: 33
EndChar

StartChar: w
Encoding: 119 119 86
Width: 816
Flags: W
LayerCount: 2
Fore
SplineSet
381 713 m 1,0,-1
 396 887 l 1,1,-1
 488 887 l 1,2,-1
 473 713 l 1,3,-1
 412 540 l 1,4,-1
 381 713 l 1,0,-1
666 523 m 1,5,-1
 716 493 l 1,6,-1
 677 41 l 1,7,8
 677 41 677 41 677 39 c 2,9,-1
 588 93 l 1,10,-1
 589 95 l 1,11,-1
 589 103 l 1,12,-1
 590 113 l 1,13,-1
 599 218 l 1,14,-1
 620 454 l 1,15,-1
 666 523 l 1,5,-1
167 218 m 1,16,-1
 160 134 l 1,17,-1
 75 6 l 1,18,19
 57 18 57 18 59 41 c 2,20,-1
 98 483 l 1,21,-1
 186 430 l 1,22,-1
 167 218 l 1,16,-1
741 994 m 1,23,24
 759 982 759 982 757 959 c 2,25,-1
 718 517 l 1,26,-1
 630 570 l 1,27,-1
 633 607 l 1,28,-1
 649 782 l 1,29,-1
 656 866 l 1,30,-1
 741 994 l 1,23,24
324 293 m 1,31,-1
 204 113 l 1,32,-1
 178 113 l 1,33,-1
 190 254 l 1,34,-1
 311 436 l 1,35,-1
 390 479 l 1,36,-1
 324 293 l 1,31,-1
582 254 m 1,37,-1
 570 113 l 1,38,-1
 544 113 l 1,39,-1
 456 293 l 1,40,-1
 422 479 l 1,41,-1
 493 436 l 1,42,-1
 582 254 l 1,37,-1
139 959 m 1,43,-1
 139 961 l 1,44,-1
 228 907 l 1,45,-1
 227 905 l 1,46,-1
 227 895 l 1,47,-1
 226 887 l 1,48,-1
 217 782 l 1,49,-1
 199 578 l 1,50,-1
 196 546 l 1,51,-1
 150 477 l 1,52,-1
 100 507 l 1,53,-1
 139 959 l 1,43,-1
EndSplineSet
Validated: 33
EndChar

StartChar: x
Encoding: 120 120 87
Width: 816
Flags: W
LayerCount: 2
Fore
SplineSet
234 746 m 1,0,-1
 246 887 l 1,1,-1
 272 887 l 1,2,-1
 360 707 l 1,3,-1
 394 521 l 1,4,-1
 323 564 l 1,5,-1
 234 746 l 1,0,-1
492 707 m 1,6,-1
 612 887 l 1,7,-1
 638 887 l 1,8,-1
 626 746 l 1,9,-1
 505 564 l 1,10,-1
 426 521 l 1,11,-1
 492 707 l 1,6,-1
324 293 m 1,12,-1
 204 113 l 1,13,-1
 178 113 l 1,14,-1
 190 254 l 1,15,-1
 311 436 l 1,16,-1
 390 479 l 1,17,-1
 324 293 l 1,12,-1
582 254 m 1,18,-1
 570 113 l 1,19,-1
 544 113 l 1,20,-1
 456 293 l 1,21,-1
 422 479 l 1,22,-1
 493 436 l 1,23,-1
 582 254 l 1,18,-1
EndSplineSet
Validated: 1
EndChar

StartChar: y
Encoding: 121 121 88
Width: 816
Flags: W
LayerCount: 2
Fore
SplineSet
234 746 m 1,0,-1
 246 887 l 1,1,-1
 272 887 l 1,2,-1
 360 707 l 1,3,-1
 394 521 l 1,4,-1
 323 564 l 1,5,-1
 234 746 l 1,0,-1
492 707 m 1,6,-1
 612 887 l 1,7,-1
 638 887 l 1,8,-1
 626 746 l 1,9,-1
 505 564 l 1,10,-1
 426 521 l 1,11,-1
 492 707 l 1,6,-1
435 287 m 1,12,-1
 420 113 l 1,13,-1
 328 113 l 1,14,-1
 343 287 l 1,15,-1
 404 460 l 1,16,-1
 435 287 l 1,12,-1
EndSplineSet
Validated: 1
EndChar

StartChar: z
Encoding: 122 122 89
Width: 816
Flags: W
LayerCount: 2
Fore
SplineSet
492 707 m 1,0,-1
 612 887 l 1,1,-1
 638 887 l 1,2,-1
 626 746 l 1,3,-1
 505 564 l 1,4,-1
 426 521 l 1,5,-1
 492 707 l 1,0,-1
269 907 m 1,6,-1
 147 981 l 1,7,8
 161 1000 161 1000 184 1000 c 2,9,-1
 720 1000 l 1,10,11
 720 1000 720 1000 722 1000 c 2,12,-1
 660 907 l 1,13,-1
 657 907 l 1,14,-1
 626 907 l 1,15,-1
 490 907 l 1,16,-1
 398 907 l 1,17,-1
 269 907 l 1,6,-1
547 93 m 1,18,-1
 669 19 l 1,19,20
 655 0 655 0 632 0 c 2,21,-1
 96 0 l 1,22,-1
 94 0 l 1,23,-1
 156 93 l 1,24,-1
 159 93 l 1,25,-1
 190 93 l 1,26,-1
 326 93 l 1,27,-1
 418 93 l 1,28,-1
 547 93 l 1,18,-1
324 293 m 1,29,-1
 204 113 l 1,30,-1
 178 113 l 1,31,-1
 190 254 l 1,32,-1
 311 436 l 1,33,-1
 390 479 l 1,34,-1
 324 293 l 1,29,-1
EndSplineSet
Validated: 1
EndChar

StartChar: bar
Encoding: 124 124 90
Width: 816
Flags: W
LayerCount: 2
Fore
SplineSet
381 713 m 1,0,-1
 396 887 l 1,1,-1
 488 887 l 1,2,-1
 473 713 l 1,3,-1
 412 540 l 1,4,-1
 381 713 l 1,0,-1
435 287 m 1,5,-1
 420 113 l 1,6,-1
 328 113 l 1,7,-1
 343 287 l 1,8,-1
 404 460 l 1,9,-1
 435 287 l 1,5,-1
EndSplineSet
Validated: 1
EndChar

StartChar: asciitilde
Encoding: 126 126 91
Width: 816
Flags: W
LayerCount: 2
Fore
SplineSet
387 500 m 1,0,-1
 303 454 l 1,1,-1
 208 454 l 1,2,-1
 188 454 l 1,3,-1
 166 467 l 1,4,-1
 219 546 l 1,5,-1
 311 546 l 1,6,-1
 387 500 l 1,0,-1
381 713 m 1,7,-1
 396 887 l 1,8,-1
 488 887 l 1,9,-1
 473 713 l 1,10,-1
 412 540 l 1,11,-1
 381 713 l 1,7,-1
628 546 m 1,12,-1
 650 533 l 1,13,-1
 597 454 l 1,14,-1
 505 454 l 1,15,-1
 429 500 l 1,16,-1
 513 546 l 1,17,-1
 628 546 l 1,12,-1
234 746 m 1,18,-1
 246 887 l 1,19,-1
 272 887 l 1,20,-1
 360 707 l 1,21,-1
 394 521 l 1,22,-1
 323 564 l 1,23,-1
 234 746 l 1,18,-1
666 523 m 1,24,-1
 716 493 l 1,25,-1
 677 41 l 1,26,-1
 677 39 l 1,27,-1
 588 93 l 1,28,-1
 589 95 l 1,29,-1
 589 103 l 1,30,-1
 590 113 l 1,31,-1
 599 218 l 1,32,-1
 620 454 l 1,33,-1
 666 523 l 1,24,-1
167 218 m 1,34,-1
 160 134 l 1,35,-1
 75 6 l 1,36,37
 57 18 57 18 59 41 c 2,38,-1
 98 483 l 1,39,-1
 186 430 l 1,40,-1
 167 218 l 1,34,-1
492 707 m 1,41,-1
 612 887 l 1,42,-1
 638 887 l 1,43,-1
 626 746 l 1,44,-1
 505 564 l 1,45,-1
 426 521 l 1,46,-1
 492 707 l 1,41,-1
435 287 m 1,47,-1
 420 113 l 1,48,-1
 328 113 l 1,49,-1
 343 287 l 1,50,-1
 404 460 l 1,51,-1
 435 287 l 1,47,-1
741 994 m 1,52,53
 759 982 759 982 757 959 c 2,54,-1
 718 517 l 1,55,-1
 630 570 l 1,56,-1
 633 607 l 1,57,-1
 649 782 l 1,58,-1
 656 866 l 1,59,-1
 741 994 l 1,52,53
269 907 m 1,60,-1
 147 981 l 1,61,62
 161 1000 161 1000 184 1000 c 2,63,-1
 720 1000 l 1,64,-1
 722 1000 l 1,65,-1
 660 907 l 1,66,-1
 657 907 l 1,67,-1
 626 907 l 1,68,-1
 490 907 l 1,69,-1
 398 907 l 1,70,-1
 269 907 l 1,60,-1
547 93 m 1,71,-1
 669 19 l 1,72,73
 655 0 655 0 632 0 c 2,74,-1
 96 0 l 1,75,-1
 94 0 l 1,76,-1
 156 93 l 1,77,-1
 159 93 l 1,78,-1
 190 93 l 1,79,-1
 326 93 l 1,80,-1
 418 93 l 1,81,-1
 547 93 l 1,71,-1
324 293 m 1,82,-1
 204 113 l 1,83,-1
 178 113 l 1,84,-1
 190 254 l 1,85,-1
 311 436 l 1,86,-1
 390 479 l 1,87,-1
 324 293 l 1,82,-1
582 254 m 1,88,-1
 570 113 l 1,89,-1
 544 113 l 1,90,-1
 456 293 l 1,91,-1
 422 479 l 1,92,-1
 493 436 l 1,93,-1
 582 254 l 1,88,-1
139 959 m 1,94,-1
 139 961 l 1,95,-1
 228 907 l 1,96,-1
 227 905 l 1,97,-1
 227 895 l 1,98,-1
 226 887 l 1,99,-1
 217 782 l 1,100,-1
 199 578 l 1,101,-1
 196 546 l 1,102,-1
 150 477 l 1,103,-1
 100 507 l 1,104,-1
 139 959 l 1,94,-1
EndSplineSet
Validated: 33
EndChar

StartChar: yen
Encoding: 165 165 92
Width: 816
Flags: W
LayerCount: 2
Fore
SplineSet
387 500 m 1,0,-1
 303 454 l 1,1,-1
 208 454 l 1,2,-1
 188 454 l 1,3,-1
 166 467 l 1,4,-1
 219 546 l 1,5,-1
 311 546 l 1,6,-1
 387 500 l 1,0,-1
628 546 m 1,7,-1
 650 533 l 1,8,-1
 597 454 l 1,9,-1
 505 454 l 1,10,-1
 429 500 l 1,11,-1
 513 546 l 1,12,-1
 628 546 l 1,7,-1
234 746 m 1,13,-1
 246 887 l 1,14,-1
 272 887 l 1,15,-1
 360 707 l 1,16,-1
 394 521 l 1,17,-1
 323 564 l 1,18,-1
 234 746 l 1,13,-1
492 707 m 1,19,-1
 612 887 l 1,20,-1
 638 887 l 1,21,-1
 626 746 l 1,22,-1
 505 564 l 1,23,-1
 426 521 l 1,24,-1
 492 707 l 1,19,-1
435 287 m 1,25,-1
 420 113 l 1,26,-1
 328 113 l 1,27,-1
 343 287 l 1,28,-1
 404 460 l 1,29,-1
 435 287 l 1,25,-1
EndSplineSet
Validated: 1
EndChar

StartChar: brokenbar
Encoding: 166 166 93
Width: 816
Flags: W
LayerCount: 2
Fore
SplineSet
381 713 m 1,0,-1
 396 887 l 1,1,-1
 488 887 l 1,2,-1
 473 713 l 1,3,-1
 412 540 l 1,4,-1
 381 713 l 1,0,-1
435 287 m 1,5,-1
 420 113 l 1,6,-1
 328 113 l 1,7,-1
 343 287 l 1,8,-1
 404 460 l 1,9,-1
 435 287 l 1,5,-1
EndSplineSet
Validated: 1
EndChar

StartChar: plusminus
Encoding: 177 177 94
Width: 816
Flags: W
LayerCount: 2
Fore
SplineSet
387 500 m 1,0,-1
 303 454 l 1,1,-1
 208 454 l 1,2,-1
 188 454 l 1,3,-1
 166 467 l 1,4,-1
 219 546 l 1,5,-1
 311 546 l 1,6,-1
 387 500 l 1,0,-1
381 713 m 1,7,-1
 396 887 l 1,8,-1
 488 887 l 1,9,-1
 473 713 l 1,10,-1
 412 540 l 1,11,-1
 381 713 l 1,7,-1
628 546 m 1,12,-1
 650 533 l 1,13,-1
 597 454 l 1,14,-1
 505 454 l 1,15,-1
 429 500 l 1,16,-1
 513 546 l 1,17,-1
 628 546 l 1,12,-1
435 287 m 1,18,-1
 420 113 l 1,19,-1
 328 113 l 1,20,-1
 343 287 l 1,21,-1
 404 460 l 1,22,-1
 435 287 l 1,18,-1
547 93 m 1,23,-1
 669 19 l 1,24,25
 655 0 655 0 632 0 c 2,26,-1
 96 0 l 1,27,-1
 94 0 l 1,28,-1
 156 93 l 1,29,-1
 159 93 l 1,30,-1
 190 93 l 1,31,-1
 326 93 l 1,32,-1
 418 93 l 1,33,-1
 547 93 l 1,23,-1
EndSplineSet
Validated: 1
EndChar

StartChar: uni23B7
Encoding: 9143 9143 95
Width: 816
Flags: W
LayerCount: 2
Fore
SplineSet
387 500 m 1,0,-1
 303 454 l 1,1,-1
 208 454 l 1,2,-1
 188 454 l 1,3,-1
 166 467 l 1,4,-1
 219 546 l 1,5,-1
 311 546 l 1,6,-1
 387 500 l 1,0,-1
666 523 m 1,7,-1
 716 493 l 1,8,-1
 677 41 l 1,9,-1
 677 39 l 1,10,-1
 588 93 l 1,11,-1
 589 95 l 1,12,-1
 589 103 l 1,13,-1
 590 113 l 1,14,-1
 599 218 l 1,15,-1
 620 454 l 1,16,-1
 666 523 l 1,7,-1
741 994 m 1,17,18
 759 982 759 982 757 959 c 2,19,-1
 718 517 l 1,20,-1
 630 570 l 1,21,-1
 633 607 l 1,22,-1
 649 782 l 1,23,-1
 656 866 l 1,24,-1
 741 994 l 1,17,18
582 254 m 1,25,-1
 570 113 l 1,26,-1
 544 113 l 1,27,-1
 456 293 l 1,28,-1
 422 479 l 1,29,-1
 493 436 l 1,30,-1
 582 254 l 1,25,-1
EndSplineSet
Validated: 33
EndChar

StartChar: radical
Encoding: 8730 8730 97
Width: 816
Flags: W
LayerCount: 2
Fore
SplineSet
387 500 m 1,0,-1
 303 454 l 1,1,-1
 208 454 l 1,2,-1
 188 454 l 1,3,-1
 166 467 l 1,4,-1
 219 546 l 1,5,-1
 311 546 l 1,6,-1
 387 500 l 1,0,-1
666 523 m 1,7,-1
 716 493 l 1,8,-1
 677 41 l 1,9,-1
 677 39 l 1,10,-1
 588 93 l 1,11,-1
 589 95 l 1,12,-1
 589 103 l 1,13,-1
 590 113 l 1,14,-1
 599 218 l 1,15,-1
 620 454 l 1,16,-1
 666 523 l 1,7,-1
741 994 m 1,17,18
 759 982 759 982 757 959 c 2,19,-1
 718 517 l 1,20,-1
 630 570 l 1,21,-1
 633 607 l 1,22,-1
 649 782 l 1,23,-1
 656 866 l 1,24,-1
 741 994 l 1,17,18
582 254 m 1,25,-1
 570 113 l 1,26,-1
 544 113 l 1,27,-1
 456 293 l 1,28,-1
 422 479 l 1,29,-1
 493 436 l 1,30,-1
 582 254 l 1,25,-1
EndSplineSet
Validated: 33
EndChar

StartChar: minus
Encoding: 8722 8722 98
Width: 816
Flags: W
LayerCount: 2
Fore
SplineSet
387 500 m 1,0,-1
 303 454 l 1,1,-1
 208 454 l 1,2,-1
 188 454 l 1,3,-1
 166 467 l 1,4,-1
 219 546 l 1,5,-1
 311 546 l 1,6,-1
 387 500 l 1,0,-1
628 546 m 1,7,-1
 650 533 l 1,8,-1
 597 454 l 1,9,-1
 505 454 l 1,10,-1
 429 500 l 1,11,-1
 513 546 l 1,12,-1
 628 546 l 1,7,-1
EndSplineSet
Validated: 1
EndChar

StartChar: pi
Encoding: 960 960 99
Width: 816
Flags: W
LayerCount: 2
Fore
SplineSet
387 500 m 1,0,-1
 303 454 l 1,1,-1
 208 454 l 1,2,-1
 188 454 l 1,3,-1
 166 467 l 1,4,-1
 219 546 l 1,5,-1
 311 546 l 1,6,-1
 387 500 l 1,0,-1
628 546 m 1,7,-1
 650 533 l 1,8,-1
 597 454 l 1,9,-1
 505 454 l 1,10,-1
 429 500 l 1,11,-1
 513 546 l 1,12,-1
 628 546 l 1,7,-1
167 218 m 1,13,-1
 160 134 l 1,14,-1
 75 6 l 1,15,16
 57 18 57 18 59 41 c 2,17,-1
 98 483 l 1,18,-1
 186 430 l 1,19,-1
 167 218 l 1,13,-1
582 254 m 1,20,-1
 570 113 l 1,21,-1
 544 113 l 1,22,-1
 456 293 l 1,23,-1
 422 479 l 1,24,-1
 493 436 l 1,25,-1
 582 254 l 1,20,-1
EndSplineSet
Validated: 33
EndChar

StartChar: Pi
Encoding: 928 928 100
Width: 816
Flags: WO
LayerCount: 2
Fore
SplineSet
666 523 m 1,0,-1
 716 493 l 1,1,-1
 677 41 l 1,2,-1
 677 39 l 1,3,-1
 588 93 l 1,4,-1
 589 95 l 1,5,-1
 589 103 l 1,6,-1
 590 113 l 1,7,-1
 599 218 l 1,8,-1
 620 454 l 1,9,-1
 666 523 l 1,0,-1
167 218 m 1,10,-1
 160 134 l 1,11,-1
 75 6 l 1,12,13
 57 18 57 18 59 41 c 2,14,-1
 98 483 l 1,15,-1
 186 430 l 1,16,-1
 167 218 l 1,10,-1
741 994 m 1,17,18
 759 982 759 982 757 959 c 2,19,-1
 718 517 l 1,20,-1
 630 570 l 1,21,-1
 633 607 l 1,22,-1
 649 782 l 1,23,-1
 656 866 l 1,24,-1
 741 994 l 1,17,18
269 907 m 1,25,-1
 147 981 l 1,26,27
 161 1000 161 1000 184 1000 c 2,28,-1
 720 1000 l 1,29,-1
 722 1000 l 1,30,-1
 660 907 l 1,31,-1
 657 907 l 1,32,-1
 626 907 l 1,33,-1
 490 907 l 1,34,-1
 398 907 l 1,35,-1
 269 907 l 1,25,-1
139 959 m 1,36,-1
 139 961 l 1,37,-1
 228 907 l 1,38,-1
 227 905 l 1,39,-1
 227 895 l 1,40,-1
 226 887 l 1,41,-1
 217 782 l 1,42,-1
 199 578 l 1,43,-1
 196 546 l 1,44,-1
 150 477 l 1,45,-1
 100 507 l 1,46,-1
 139 959 l 1,36,-1
EndSplineSet
EndChar
